<!-- Generator: Adobe Illustrator 21.0.0, SVG Export Plug-In  -->
<svg version="1.1"
	 xmlns="http://www.w3.org/2000/svg" xmlns:xlink="http://www.w3.org/1999/xlink" xmlns:a="http://ns.adobe.com/AdobeSVGViewerExtensions/3.0/"
	 x="0px" y="0px" width="1165.4px" height="334.3px" viewBox="0 0 1165.4 334.3" style="enable-background:new 0 0 1165.4 334.3;"
	 xml:space="preserve">
<style type="text/css">
	.st0{fill:#18599E;}
</style>
<defs>
</defs>
<g>
	<path id="XMLID_21_" class="st0" d="M14.6,212.2L14.6,212.2c-8,0-14.6-6.5-14.6-14.6L0,75.6C0,67.6,6.5,61,14.6,61h0
		c8,0,14.6,6.5,14.6,14.6l0,122.1C29.1,205.7,22.6,212.2,14.6,212.2z"/>
	<path id="XMLID_20_" class="st0" d="M319.7,212.2L319.7,212.2c-8,0-14.6-6.5-14.6-14.6V75.6c0-8,6.5-14.6,14.6-14.6h0
		c8,0,14.6,6.5,14.6,14.6v122.1C334.3,205.7,327.8,212.2,319.7,212.2z"/>
	<path id="XMLID_19_" class="st0" d="M90.9,273.2L90.9,273.2c-8,0-14.6-6.5-14.6-14.6V14.6c0-8,6.5-14.6,14.6-14.6h0
		c8,0,14.6,6.5,14.6,14.6v244.1C105.4,266.7,98.9,273.2,90.9,273.2z"/>
	<path id="XMLID_18_" class="st0" d="M167.1,334.3L167.1,334.3c-8,0-14.6-6.5-14.6-14.6V75.6c0-8,6.5-14.6,14.6-14.6h0
		c8,0,14.6,6.5,14.6,14.6v244.1C181.7,327.8,175.2,334.3,167.1,334.3z"/>
	<path id="XMLID_17_" class="st0" d="M243.4,273.2L243.4,273.2c-8,0-14.6-6.5-14.6-14.6V14.6c0-8,6.5-14.6,14.6-14.6h0
		c8,0,14.6,6.5,14.6,14.6v244.1C258,266.7,251.5,273.2,243.4,273.2z"/>
</g>
<g>
	<path id="XMLID_14_" class="st0" d="M522.9,121.9L522.9,121.9c0,2.8-2.2,5-4.9,5h-89c-2.7,0-5-2.2-5-5v0c0-2.7,2.2-5,5-5h89
		C520.7,116.9,522.9,119.2,522.9,121.9z M522.9,146.6L522.9,146.6c0,2.8-2.2,5-4.9,5h-81.4c-1.5,0-2.7,1.2-2.7,2.7v9.4
		c0,1.5,1.2,2.7,2.7,2.7h81.4c2.7,0,4.9,2.2,4.9,4.9v0c0,2.7-2.2,4.9-4.9,4.9h-86.8c-3.9,0-7.1-3.2-7.1-7.1v-20.4
		c0-3.9,3.2-7.1,7.1-7.1h86.8C520.7,141.7,522.9,143.9,522.9,146.6z"/>
	<path id="XMLID_10_" class="st0" d="M569.3,169.2v-45.1c0-3.9,3.2-7.1,7.1-7.1h74.4c4.8,0,8.9,1.7,12.2,5.1
		c3.4,3.4,5.1,7.4,5.1,12.2c0,4.9-1.7,9-5.2,12.4c3.5,3.4,5.2,7.5,5.2,12.4c0,4.6-1.6,8.6-4.8,11.9c-3.4,3.5-8.1,5.4-12.9,5.4
		l-74.1,0C572.5,176.3,569.3,173.1,569.3,169.2z M579.2,139c0,1.5,1.2,2.7,2.7,2.7h69c2,0,3.8-0.7,5.3-2.2c1.4-1.5,2.2-3.2,2.2-5.3
		c0-2-0.7-3.8-2.2-5.2c-1.5-1.4-3.2-2.2-5.3-2.2h-69c-1.5,0-2.7,1.2-2.7,2.7V139z M579.2,163.7c0,1.5,1.2,2.7,2.7,2.7h69
		c2,0,3.8-0.7,5.3-2.2c1.4-1.4,2.2-3.2,2.2-5.2c0-2-0.7-3.8-2.2-5.3c-1.5-1.4-3.2-2.2-5.3-2.2h-69c-1.5,0-2.7,1.2-2.7,2.7V163.7z"/>
	<path id="XMLID_8_" class="st0" d="M719.5,114.9L719.5,114.9c2.7,0,4.9,2.2,4.9,4.9v53.6c0,2.7-2.2,4.9-4.9,4.9l0,0
		c-2.7,0-4.9-2.2-4.9-4.9v-53.6C714.6,117.1,716.8,114.9,719.5,114.9z"/>
	<path id="XMLID_6_" class="st0" d="M869.8,171.4c0,2.7-2.2,4.9-4.9,4.9h-64.3c-8.2,0-15.1-2.9-20.9-8.7c-5.8-5.8-8.7-12.8-8.7-20.9
		c0-8.2,2.9-15.2,8.7-21c5.8-5.8,12.8-8.7,20.9-8.7h64.3c2.7,0,4.9,2.2,4.9,4.9v0c0,2.7-2.2,4.9-4.9,4.9h-64.3
		c-5.4,0-10.1,1.9-14,5.8c-3.9,3.9-5.8,8.5-5.8,14c0,5.4,1.9,10.1,5.8,14c3.9,3.9,8.5,5.8,14,5.8h64.3
		C867.6,166.4,869.8,168.6,869.8,171.4L869.8,171.4z"/>
	<path id="XMLID_3_" class="st0" d="M933.5,176.3c-4.8,0-8.8-1.7-12.2-5.1c-3.4-3.4-5.1-7.5-5.1-12.2v-24.8c0-4.8,1.7-8.8,5.1-12.2
		c3.4-3.4,7.5-5.1,12.2-5.1h64.3c4.8,0,8.9,1.7,12.2,5.1c3.4,3.4,5.1,7.4,5.1,12.2V159c0,4.8-1.7,8.8-5.1,12.2
		c-3.4,3.4-7.5,5.1-12.2,5.1H933.5z M933.5,126.9c-2,0-3.8,0.7-5.2,2.2c-1.5,1.5-2.2,3.2-2.2,5.2V159c0,2,0.7,3.8,2.2,5.2
		c1.4,1.5,3.2,2.2,5.2,2.2h64.3c2,0,3.8-0.7,5.3-2.2c1.4-1.4,2.2-3.2,2.2-5.2v-24.8c0-2-0.7-3.8-2.2-5.2c-1.5-1.4-3.2-2.2-5.3-2.2
		H933.5z"/>
	<path id="XMLID_1_" class="st0" d="M1165.4,123.9v49.5c0,2.7-2.2,4.9-4.9,4.9h0c-2.7,0-4.9-2.2-4.9-4.9v-42.9l-33.4,29.9
		c-4.9,4.4-12.3,4.4-17.2,0l-33.4-29.9v42.9c0,2.7-2.2,4.9-4.9,4.9l0,0c-2.7,0-4.9-2.2-4.9-4.9v-49.5c0-3.8,3.1-6.9,6.9-6.9l0,0
		c1.7,0,3.4,0.6,4.6,1.8l36.8,32.9c2,1.8,5.1,1.8,7.1,0l36.8-32.9c1.3-1.1,2.9-1.8,4.6-1.8l0,0
		C1162.3,116.9,1165.4,120.1,1165.4,123.9z"/>
</g>
</svg>
