<!-- Generator: Adobe Illustrator 21.0.0, SVG Export Plug-In  -->
<svg version="1.1"
	 xmlns="http://www.w3.org/2000/svg" xmlns:xlink="http://www.w3.org/1999/xlink" xmlns:a="http://ns.adobe.com/AdobeSVGViewerExtensions/3.0/"
	 x="0px" y="0px" width="726.3px" height="379.5px" viewBox="0 0 726.3 379.5" style="enable-background:new 0 0 726.3 379.5;"
	 xml:space="preserve">
<defs>
</defs>
<circle cx="431.8" cy="111.8" r="2"/>
<circle cx="426.7" cy="78.1" r="2"/>
<ellipse cx="429" cy="92.4" rx="2" ry="2"/>
<circle cx="427.8" cy="84.6" r="2"/>
<circle cx="444" cy="83.1" r="2"/>
<ellipse cx="442.6" cy="76.8" rx="2" ry="2"/>
<path d="M486.6,316c-1.1,0-2,0.9-2,2c0,1.1,0.9,2,2,2c1.1,0,2-0.9,2-2C488.6,316.9,487.7,316,486.6,316z"/>
<ellipse cx="482.3" cy="295.9" rx="2" ry="2"/>
<circle cx="478.3" cy="274.4" r="2"/>
<path d="M491.1,338.7c-1.1,0-2,0.9-2,2c0,1.1,0.9,2,2,2c1.1,0,2-0.9,2-2C493.1,339.6,492.2,338.7,491.1,338.7z"/>
<circle cx="470.9" cy="233.5" r="2"/>
<circle cx="474.5" cy="253.6" r="2"/>
<path d="M456.1,149.9c1.1,0,2-0.9,2-2c0-1.1-0.9-2-2-2c-1.1,0-2,0.9-2,2C454,149,455,149.9,456.1,149.9z"/>
<path d="M449.3,111.9c1.1,0,2-0.9,2-2s-0.9-2-2-2c-1.1,0-2,0.9-2,2S448.2,111.9,449.3,111.9z"/>
<ellipse cx="451.4" cy="121.3" rx="2" ry="2"/>
<ellipse cx="447.4" cy="99.7" rx="2" ry="2"/>
<ellipse cx="453.6" cy="134" rx="2" ry="2"/>
<circle cx="467.6" cy="214.4" r="2"/>
<ellipse cx="464.4" cy="196.2" rx="2" ry="2"/>
<ellipse cx="461.4" cy="179" rx="2" ry="2"/>
<circle cx="445.7" cy="90.7" r="2"/>
<ellipse cx="458.7" cy="162.9" rx="2" ry="2"/>
<ellipse cx="430.3" cy="101.4" rx="2" ry="2"/>
<circle cx="411.5" cy="85.6" r="2"/>
<circle cx="410.7" cy="79.1" r="2"/>
<circle cx="412.3" cy="93.5" r="2"/>
<circle cx="415.2" cy="124.9" r="2"/>
<path d="M416.2,113.1c0-1.1-0.9-2-2-2c-1.1,0-2,0.9-2,2c0,1.1,0.9,2,2,2C415.3,115.2,416.2,114.3,416.2,113.1z"/>
<circle cx="433.4" cy="123.4" r="2"/>
<ellipse cx="416.3" cy="137.8" rx="2" ry="2"/>
<path d="M407.2,71.2c0.2,0,0.4,0,0.6-0.1c0.4,0.5,0.9,0.8,1.6,0.8c0.1,0,0.1,0,0.2,0c-0.9,0.2-1.6,1-1.6,2c0,1.1,0.9,2,2,2
	c1.1,0,2-0.9,2-2c0-1.1-0.9-2-2-2c-0.1,0-0.1,0-0.2,0c0.9-0.2,1.6-1,1.6-2c0-0.7-0.3-1.3-0.8-1.6c0.2-0.3,0.3-0.6,0.3-1
	c0-0.5-0.2-1-0.5-1.3c0,0,0,0,0-0.1c0-1-0.7-1.8-1.7-2c-0.2-0.1-0.5-0.1-0.7-0.1c-1.1,0-2,0.9-2,1.9c-0.2,0.3-0.4,0.7-0.4,1.2
	c0,0.3,0.1,0.6,0.2,0.9c-0.4,0.4-0.6,0.9-0.6,1.4C405.2,70.3,406.1,71.2,407.2,71.2z"/>
<circle cx="421.8" cy="201.2" r="2"/>
<circle cx="435.3" cy="348.3" r="2"/>
<ellipse cx="437.7" cy="371.8" rx="2" ry="2"/>
<circle cx="425.1" cy="239.2" r="2"/>
<ellipse cx="423.4" cy="219.8" rx="2" ry="2"/>
<ellipse cx="420.3" cy="183.7" rx="2" ry="2"/>
<path d="M435.1,325.2c0-1.1-0.9-2-2-2c-1.1,0-2,0.9-2,2c0,1.1,0.9,2,2,2C434.2,327.2,435.1,326.3,435.1,325.2z"/>
<circle cx="418.9" cy="167.3" r="2"/>
<circle cx="417.6" cy="152" r="2"/>
<ellipse cx="430.9" cy="302.7" rx="2" ry="2"/>
<circle cx="428.9" cy="280.8" r="2"/>
<circle cx="426.9" cy="259.6" r="2"/>
<path d="M415.2,102.7c0-1.1-0.9-2-2-2c-1.1,0-2,0.9-2,2c0,1.1,0.9,2,2,2C414.3,104.7,415.2,103.8,415.2,102.7z"/>
<ellipse cx="456.7" cy="299.8" rx="2" ry="2"/>
<circle cx="466.9" cy="368.5" r="2"/>
<path d="M463.3,343.1c-1.1,0-2,0.9-2,2c0,1.1,0.9,2,2,2c1.1,0,2-0.9,2-2C465.3,344,464.4,343.1,463.3,343.1z"/>
<circle cx="459.9" cy="322.2" r="2"/>
<ellipse cx="450.8" cy="257.1" rx="2" ry="2"/>
<ellipse cx="436.9" cy="150.3" rx="2" ry="2"/>
<ellipse cx="438.8" cy="165.5" rx="2" ry="2"/>
<ellipse cx="435.1" cy="136.2" rx="2" ry="2"/>
<circle cx="453.7" cy="278.1" r="2"/>
<circle cx="440.9" cy="181.8" r="2"/>
<path d="M445.2,199.1c0-1.1-0.9-2-2-2c-1.1,0-2,0.9-2,2c0,1.1,0.9,2,2,2C444.3,201.2,445.2,200.3,445.2,199.1z"/>
<ellipse cx="448.1" cy="236.9" rx="2" ry="2"/>
<ellipse cx="445.6" cy="217.5" rx="2" ry="2"/>
<circle cx="497.7" cy="155.7" r="2"/>
<circle cx="493.9" cy="141.2" r="2"/>
<circle cx="487.1" cy="115.5" r="2"/>
<circle cx="484" cy="104.5" r="2"/>
<circle cx="490.4" cy="127.8" r="2"/>
<path d="M523.1,243.7c0-1.1-0.9-2-2-2c-1.1,0-2,0.9-2,2c0,1.1,0.9,2,2,2C522.2,245.7,523.1,244.8,523.1,243.7z"/>
<ellipse cx="515.8" cy="224.2" rx="2" ry="2"/>
<circle cx="510.8" cy="205.6" r="2"/>
<ellipse cx="506.2" cy="188" rx="2" ry="2"/>
<ellipse cx="526.6" cy="263.9" rx="2" ry="2"/>
<path d="M464.9,65.7c1,0,1.9-0.8,2-1.8c0.1,0,0.1-0.1,0.2-0.1c0.3,0.4,0.7,0.7,1.2,0.8c0,0.1,0,0.1,0,0.2c0,1.1,0.9,2,2,2
	c0.1,0,0.3,0,0.4,0c-0.4,0.4-0.6,0.9-0.6,1.4c0,1.1,0.9,2,2,2c1.1,0,2-0.9,2-2c0-1.1-0.9-2-2-2c-0.1,0-0.3,0-0.4,0
	c0.4-0.4,0.6-0.9,0.6-1.4c0-1-0.7-1.8-1.6-2c0-0.1,0-0.1,0-0.2c0-1-0.8-1.9-1.8-2c-0.4-0.5-1-0.9-1.7-0.9c-0.4,0-0.8,0.1-1.1,0.4
	c0,0-0.1,0-0.1,0c-1,0-1.9,0.8-2,1.8c-0.7,0.3-1.1,1-1.1,1.8C462.9,64.8,463.8,65.7,464.9,65.7z"/>
<ellipse cx="476.3" cy="79" rx="2" ry="2"/>
<circle cx="478.6" cy="86.2" r="2"/>
<ellipse cx="474.1" cy="73" rx="2" ry="2"/>
<circle cx="481.2" cy="94.7" r="2"/>
<circle cx="501.8" cy="171.3" r="2"/>
<path d="M504.7,113.8c1.1,0,2-0.9,2-2c0-1.1-0.9-2-2-2c-1.1,0-2,0.9-2,2C502.6,112.9,503.5,113.8,504.7,113.8z"/>
<circle cx="501.1" cy="101.1" r="2"/>
<circle cx="497.9" cy="91.6" r="2"/>
<path d="M494.9,81.3c-1.1,0-2,0.9-2,2c0,1.1,0.9,2,2,2c1.1,0,2-0.9,2-2C496.9,82.2,496,81.3,494.9,81.3z"/>
<circle cx="492.2" cy="76.3" r="2"/>
<circle cx="516.9" cy="151.1" r="2"/>
<path d="M521.6,164.4c-1.1,0-2,0.9-2,2c0,1.1,0.9,2,2,2c1.1,0,2-0.9,2-2C523.6,165.3,522.7,164.4,521.6,164.4z"/>
<ellipse cx="508.5" cy="123.8" rx="2" ry="2"/>
<circle cx="489.7" cy="70.6" r="2"/>
<circle cx="526.7" cy="182.7" r="2"/>
<path d="M545.8,237.3c0-1.1-0.9-2-2-2c-1.1,0-2,0.9-2,2c0,1.1,0.9,2,2,2C544.9,239.3,545.8,238.4,545.8,237.3z"/>
<circle cx="532" cy="200" r="2"/>
<circle cx="557" cy="277.7" r="2"/>
<circle cx="550.2" cy="257.2" r="2"/>
<ellipse cx="537.7" cy="218.3" rx="2" ry="2"/>
<ellipse cx="564.2" cy="298.8" rx="2" ry="2"/>
<circle cx="588.2" cy="365" r="2"/>
<ellipse cx="579.8" cy="342.6" rx="2" ry="2"/>
<circle cx="571.8" cy="320.5" r="2"/>
<circle cx="512.5" cy="136.9" r="2"/>
<ellipse cx="493.5" cy="229.3" rx="2" ry="2"/>
<circle cx="489.3" cy="210.4" r="2"/>
<circle cx="485.4" cy="192.5" r="2"/>
<circle cx="481.7" cy="175.5" r="2"/>
<ellipse cx="478.3" cy="159.6" rx="2" ry="2"/>
<ellipse cx="497.9" cy="249.1" rx="2" ry="2"/>
<circle cx="507.6" cy="290.9" r="2"/>
<circle cx="475.1" cy="144.8" r="2"/>
<circle cx="518.4" cy="335.2" r="2"/>
<path d="M502.6,267.6c-1.1,0-2,0.9-2,2c0,1.1,0.9,2,2,2c1.1,0,2-0.9,2-2C504.7,268.5,503.8,267.6,502.6,267.6z"/>
<ellipse cx="512.9" cy="312.7" rx="2" ry="2"/>
<circle cx="460.2" cy="81.2" r="2"/>
<circle cx="464.4" cy="97.4" r="2"/>
<ellipse cx="469.3" cy="118.7" rx="2" ry="2"/>
<circle cx="466.8" cy="107.5" r="2"/>
<circle cx="472.1" cy="131.2" r="2"/>
<ellipse cx="462.2" cy="88.7" rx="2" ry="2"/>
<circle cx="458.4" cy="75.1" r="2"/>
<ellipse cx="524.3" cy="358" rx="2" ry="2"/>
<ellipse cx="545.4" cy="328.4" rx="2" ry="2"/>
<circle cx="559.6" cy="373.7" r="2"/>
<ellipse cx="552.3" cy="350.9" rx="2" ry="2"/>
<ellipse cx="538.8" cy="306.3" rx="2" ry="2"/>
<path d="M450.6,66.8c0.8,0,1.5-0.5,1.8-1.1c0.2,0.2,0.5,0.4,0.8,0.5c0,0.1,0,0.3,0,0.4c0,1.1,0.9,2,2,2c0.1,0,0.2,0,0.3,0
	c-0.5,0.4-0.8,1-0.8,1.6c0,1.1,0.9,2,2,2c1.1,0,2-0.9,2-2c0-1.1-0.9-2-2-2c-0.1,0-0.2,0-0.3,0c0.5-0.4,0.8-1,0.8-1.6
	c0-0.9-0.6-1.6-1.4-1.9c0-0.1,0-0.3,0-0.4c0-0.9-0.6-1.6-1.4-1.9c-0.3-0.7-1-1.2-1.8-1.2c-0.3,0-0.6,0.1-0.9,0.2c-0.1,0-0.1,0-0.2,0
	c-1,0-1.8,0.7-2,1.7c-0.6,0.4-1,1-1,1.7C448.6,65.9,449.5,66.8,450.6,66.8z"/>
<ellipse cx="532.5" cy="284.8" rx="2" ry="2"/>
<path d="M620.3,34.4c-0.3-0.3-0.8-0.5-1.2-0.5c-1.1,0-2,0.9-2,2c0,0.3,0.1,0.6,0.2,0.9C618.3,36,619.3,35.2,620.3,34.4z"/>
<ellipse cx="724.3" cy="146.2" rx="2" ry="2"/>
<ellipse cx="692" cy="106.9" rx="2" ry="2"/>
<circle cx="712.9" cy="132.4" r="2"/>
<circle cx="682.5" cy="95.4" r="2"/>
<path d="M702.1,117.3c-1.1,0-2,0.9-2,2c0,1.1,0.9,2,2,2c1.1,0,2-0.9,2-2C704.1,118.2,703.2,117.3,702.1,117.3z"/>
<circle cx="673.7" cy="84.8" r="2"/>
<circle cx="349.5" cy="373.9" r="2"/>
<circle cx="351.8" cy="327.1" r="2"/>
<ellipse cx="350.7" cy="350.3" rx="2" ry="2"/>
<path d="M262.9,360.8c-1,0-1.8,0.7-2,1.7c-0.5,0.4-0.8,0.9-0.8,1.6c0,1.1,0.9,2,2,2c1,0,1.8-0.7,2-1.7c0.5-0.4,0.8-0.9,0.8-1.6
	C264.9,361.7,264,360.8,262.9,360.8z"/>
<path d="M436.9,67.6c0.3-0.1,0.6-0.3,0.8-0.5c0.1,0.1,0.3,0.2,0.4,0.2c-0.1,0.2-0.1,0.4-0.1,0.6c0,1.1,0.9,2,2,2c0.1,0,0.2,0,0.3,0
	c-0.6,0.3-1.1,1-1.1,1.8c0,1.1,0.9,2,2,2c1.1,0,2-0.9,2-2c0-1.1-0.9-2-2-2c-0.1,0-0.2,0-0.3,0c0.6-0.3,1.1-1,1.1-1.8
	c0-0.8-0.5-1.5-1.2-1.8c0.1-0.2,0.1-0.4,0.1-0.6c0-0.8-0.4-1.4-1.1-1.8c-0.2-0.8-1-1.4-1.9-1.4c-0.2,0-0.4,0-0.6,0.1
	c-0.1,0-0.2,0-0.3,0c-1,0-1.8,0.7-2,1.7c-0.5,0.4-0.8,0.9-0.8,1.6c0,0.7,0.3,1.2,0.8,1.6c-0.6,0.2-1.1,0.7-1.3,1.2
	c1.1-0.2,2.2-0.4,3.4-0.6C437.1,67.7,437,67.6,436.9,67.6z"/>
<path d="M419.4,68.9c0,0.6,0.3,1.1,0.7,1.5c0.9-0.1,1.9-0.3,2.8-0.4c0.3,0.7,1,1.1,1.8,1.1c0.1,0,0.1,0,0.2,0
	c-0.7,0.3-1.3,1-1.3,1.9c0,1.1,0.9,2,2,2c1.1,0,2-0.9,2-2c0-1.1-0.9-2-2-2c-0.1,0-0.1,0-0.2,0c0.7-0.3,1.3-1,1.3-1.9
	c0-0.7-0.4-1.4-1-1.7c0.1-0.3,0.2-0.5,0.2-0.8c0-0.6-0.3-1.2-0.8-1.6c-0.1-1-1-1.7-2-1.7c-0.1,0-0.1,0-0.2,0c-0.2,0-0.3-0.1-0.5-0.1
	c-1,0-1.9,0.8-2,1.8c-0.4,0.4-0.6,0.9-0.6,1.4c0,0.4,0.1,0.7,0.3,1C419.7,67.7,419.4,68.3,419.4,68.9z"/>
<path d="M478.1,64.3c1-0.3,2-0.6,2.9-0.9c0.1-0.2,0.2-0.5,0.2-0.7c0.2-0.1,0.4-0.2,0.6-0.4c0,0,0.1,0,0.1,0c0,0,0.1,0,0.1,0
	c0.3,0.4,0.8,0.6,1.4,0.7c0,1.1,0.9,2,2,2c0.2,0,0.3,0,0.5-0.1c-0.3,0.3-0.4,0.8-0.4,1.2c0,1.1,0.9,2,2,2c1.1,0,2-0.9,2-2
	c0-1.1-0.9-2-2-2c-0.2,0-0.3,0-0.5,0.1c0.3-0.3,0.4-0.8,0.4-1.2c0-1.1-0.8-1.9-1.8-2c0-1.1-0.9-2-2-2c0,0-0.1,0-0.1,0
	c-0.4-0.4-0.9-0.7-1.5-0.7c-0.5,0-1,0.2-1.4,0.5c0,0-0.1,0-0.1,0c-1.1,0-2,0.9-2,2c-0.7,0.3-1.3,1-1.3,1.9
	C477.2,63.4,477.6,64,478.1,64.3z"/>
<path d="M654.4,30c0.9-0.9,1.8-1.8,2.7-2.7c-0.3-0.6-1-1.1-1.8-1.1c-1.1,0-2,0.9-2,2C653.4,29,653.8,29.6,654.4,30z"/>
<circle cx="641.6" cy="33.4" r="2"/>
<circle cx="646.7" cy="36.3" r="2"/>
<circle cx="652.4" cy="40.2" r="2"/>
<ellipse cx="680.5" cy="66.4" rx="2" ry="2"/>
<path d="M698.1,83.3c-1.1,0-2,0.9-2,2s0.9,2,2,2c1.1,0,2-0.9,2-2S699.2,83.3,698.1,83.3z"/>
<ellipse cx="718.3" cy="107.8" rx="2" ry="2"/>
<circle cx="707.9" cy="96.2" r="2"/>
<circle cx="672.6" cy="58.3" r="2"/>
<circle cx="665.3" cy="51.3" r="2"/>
<path d="M658.6,47.2c1.1,0,2-0.9,2-2c0-1.1-0.9-2-2-2c-1.1,0-2,0.9-2,2C656.6,46.3,657.5,47.2,658.6,47.2z"/>
<circle cx="689" cy="75.4" r="2"/>
<circle cx="657.8" cy="66.5" r="2"/>
<ellipse cx="650.7" cy="58.8" rx="2" ry="2"/>
<ellipse cx="644.2" cy="52.1" rx="2" ry="2"/>
<circle cx="638.1" cy="46.6" r="2"/>
<circle cx="623" cy="36.4" r="2"/>
<path d="M635.9,33.5c1-0.8,1.9-1.7,2.9-2.5c-0.3-0.7-1-1.1-1.8-1.1c-1.1,0-2,0.9-2,2C634.9,32.6,635.3,33.1,635.9,33.5z"/>
<ellipse cx="627.6" cy="38.7" rx="2" ry="2"/>
<circle cx="632.6" cy="42.1" r="2"/>
<ellipse cx="352.8" cy="304.4" rx="2" ry="2"/>
<circle cx="665.5" cy="75.2" r="2"/>
<ellipse cx="401.1" cy="221.1" rx="2" ry="2"/>
<ellipse cx="399.6" cy="184.9" rx="2" ry="2"/>
<circle cx="400.3" cy="202.5" r="2"/>
<circle cx="402.9" cy="261.1" r="2"/>
<circle cx="403.9" cy="282.4" r="2"/>
<ellipse cx="406" cy="327" rx="2" ry="2"/>
<circle cx="408.4" cy="373.9" r="2"/>
<ellipse cx="407.2" cy="350.2" rx="2" ry="2"/>
<path d="M406.9,304.4c0-1.1-0.9-2-2-2c-1.1,0-2,0.9-2,2c0,1.1,0.9,2,2,2C406.1,306.4,406.9,305.5,406.9,304.4z"/>
<circle cx="402" cy="240.7" r="2"/>
<ellipse cx="398.9" cy="168.4" rx="2" ry="2"/>
<ellipse cx="396" cy="103.5" rx="2" ry="2"/>
<circle cx="395.5" cy="94.2" r="2"/>
<circle cx="394.7" cy="79.7" r="2"/>
<circle cx="397" cy="125.8" r="2"/>
<ellipse cx="397.6" cy="138.8" rx="2" ry="2"/>
<path d="M400.2,153c0-1.1-0.9-2-2-2c-1.1,0-2,0.9-2,2c0,1.1,0.9,2,2,2C399.3,155,400.2,154.1,400.2,153z"/>
<ellipse cx="396.5" cy="114" rx="2" ry="2"/>
<ellipse cx="394.4" cy="74.3" rx="2" ry="2"/>
<circle cx="395.1" cy="86.3" r="2"/>
<path d="M394.1,72.3c1.1,0,2-0.9,2-2c0-0.6-0.3-1.1-0.7-1.5c0.3-0.3,0.4-0.8,0.4-1.2c0-0.4-0.1-0.7-0.3-1c0-0.1,0-0.3,0-0.4
	c0-0.7-0.4-1.4-1-1.7c-0.3-0.3-0.8-0.4-1.2-0.4c-1.1,0-2,0.9-2,2c0,0.1,0,0.1,0,0.2c-0.1,0.3-0.2,0.6-0.2,0.9c0,0.4,0.1,0.7,0.3,1
	c-0.3,0.3-0.5,0.8-0.5,1.3c0,0.9,0.6,1.6,1.4,1.9C392.7,71.9,393.3,72.3,394.1,72.3z"/>
<path d="M378.9,307c1.1,0,2-0.9,2-2c0-1.1-0.9-2-2-2c-1.1,0-2,0.9-2,2C376.9,306.1,377.8,307,378.9,307z"/>
<ellipse cx="380.5" cy="365.1" rx="2" ry="2"/>
<path d="M359.3,151c-1.1,0-2,0.9-2,2c0,1.1,0.9,2,2,2c1.1,0,2-0.9,2-2C361.4,151.9,360.5,151,359.3,151z"/>
<ellipse cx="361" cy="114" rx="2" ry="2"/>
<circle cx="359.9" cy="138.8" r="2"/>
<circle cx="358" cy="185" r="2"/>
<ellipse cx="360.5" cy="125.8" rx="2" ry="2"/>
<circle cx="357.3" cy="202.5" r="2"/>
<circle cx="355.7" cy="240.7" r="2"/>
<path d="M354.8,259.2c-1.1,0-2,0.9-2,2s0.9,2,2,2c1.1,0,2-0.9,2-2S355.9,259.2,354.8,259.2z"/>
<path d="M356.5,219.1c-1.1,0-2,0.9-2,2c0,1.1,0.9,2,2,2c1.1,0,2-0.9,2-2C358.5,220,357.6,219.1,356.5,219.1z"/>
<circle cx="358.7" cy="168.4" r="2"/>
<path d="M366.3,67.1c0-0.3-0.1-0.6-0.2-0.9c0-0.1,0-0.1,0-0.2c0-1.1-0.9-2-2-2c-0.5,0-0.9,0.2-1.3,0.5c-0.6,0.4-1,1-1,1.7
	c0,0.1,0,0.3,0,0.4c-0.2,0.3-0.3,0.6-0.3,1c0,0.5,0.2,0.9,0.4,1.2c-0.4,0.4-0.7,0.9-0.7,1.5c0,1.1,0.9,2,2,2c0.8,0,1.4-0.4,1.8-1
	c0.8-0.3,1.3-1,1.3-1.9c0-0.5-0.2-0.9-0.5-1.3C366.2,67.9,366.3,67.5,366.3,67.1z"/>
<circle cx="363" cy="74.4" r="2"/>
<circle cx="362.3" cy="86.3" r="2"/>
<path d="M361.9,92.2c-1.1,0-2,0.9-2,2c0,1.1,0.9,2,2,2c1.1,0,2-0.9,2-2C363.9,93.1,363,92.2,361.9,92.2z"/>
<circle cx="361.5" cy="103.5" r="2"/>
<circle cx="362.7" cy="79.7" r="2"/>
<path d="M378.8,141.1c1.1,0,2-0.9,2-2c0-1.1-0.9-2-2-2c-1.1,0-2,0.9-2,2C376.7,140.2,377.6,141.1,378.8,141.1z"/>
<circle cx="378.8" cy="221.6" r="2"/>
<ellipse cx="378.7" cy="86.5" rx="2" ry="2"/>
<ellipse cx="378.7" cy="103.7" rx="2" ry="2"/>
<circle cx="378.7" cy="94.5" r="2"/>
<circle cx="378.7" cy="126.1" r="2"/>
<circle cx="378.8" cy="203" r="2"/>
<circle cx="378.8" cy="153.4" r="2"/>
<circle cx="378.8" cy="185.3" r="2"/>
<circle cx="378.8" cy="168.8" r="2"/>
<circle cx="378.7" cy="114.3" r="2"/>
<path d="M378.7,81.9c1.1,0,2-0.9,2-2c0-1.1-0.9-2-2-2c-1.1,0-2,0.9-2,2C376.7,81,377.6,81.9,378.7,81.9z"/>
<path d="M498.1,360.7c-0.9,0-1.6,0.5-1.9,1.3c-0.1,0-0.3-0.1-0.5-0.1c-1.1,0-2,0.9-2,2c0,1.1,0.9,2,2,2c0.9,0,1.6-0.5,1.9-1.3
	c0.1,0,0.3,0.1,0.5,0.1c1.1,0,2-0.9,2-2C500.1,361.6,499.2,360.7,498.1,360.7z"/>
<path d="M376.7,74.5c0,1.1,0.9,2,2,2c1.1,0,2-0.9,2-2c0-1.1-0.9-2-2-2c1.1,0,2-0.9,2-2c0-0.2,0-0.4-0.1-0.5c0-0.2,0.1-0.3,0.1-0.5
	c0-0.3-0.1-0.6-0.2-0.8c0.1-0.3,0.2-0.6,0.2-0.9c0-0.1,0-0.2,0-0.3c0-0.1,0-0.1,0-0.2c0-0.1,0-0.3,0-0.4c0-0.1,0.1-0.3,0.1-0.5
	c0,0,0-0.1,0-0.1c0,0,0-0.1,0-0.1c0-1.1-0.9-2-2-2c-1.1,0-2,0.9-2,2c0,0,0,0.1,0,0.1c0,0,0,0.1,0,0.1c0,0.1,0,0.3,0,0.4
	c0,0.1-0.1,0.3-0.1,0.5c0,0.1,0,0.2,0,0.3c0,0.1,0,0.1,0,0.2c0,0.3,0.1,0.6,0.2,0.9c-0.1,0.3-0.2,0.6-0.2,0.9c0,0.2,0,0.4,0.1,0.5
	c0,0.2-0.1,0.3-0.1,0.5c0,1.1,0.9,2,2,2C377.6,72.5,376.7,73.4,376.7,74.5z"/>
<circle cx="378.8" cy="241.2" r="2"/>
<circle cx="378.9" cy="327.6" r="2"/>
<path d="M353.8,280.4c-1.1,0-2,0.9-2,2c0,1.1,0.9,2,2,2c1.1,0,2-0.9,2-2C355.8,281.3,354.9,280.4,353.8,280.4z"/>
<circle cx="378.9" cy="282.9" r="2"/>
<ellipse cx="378.9" cy="261.7" rx="2" ry="2"/>
<circle cx="378.9" cy="350.9" r="2"/>
<circle cx="378.9" cy="374.5" r="2"/>
<circle cx="723.1" cy="38.9" r="2"/>
<circle cx="629.4" cy="58.8" r="2"/>
<circle cx="604.9" cy="39.4" r="2"/>
<circle cx="608.9" cy="41" r="2"/>
<circle cx="618.2" cy="47.7" r="2"/>
<circle cx="623.6" cy="52.7" r="2"/>
<circle cx="613.4" cy="43.8" r="2"/>
<ellipse cx="718.2" cy="55.9" rx="2" ry="2"/>
<ellipse cx="709.3" cy="48.2" rx="2" ry="2"/>
<circle cx="693.5" cy="35.7" r="2"/>
<circle cx="701.1" cy="41.5" r="2"/>
<circle cx="686.5" cy="30.9" r="2"/>
<circle cx="680.1" cy="27.1" r="2"/>
<circle cx="668.1" cy="141.1" r="2"/>
<circle cx="658.7" cy="127.4" r="2"/>
<circle cx="634.1" cy="91.8" r="2"/>
<circle cx="641.8" cy="102.7" r="2"/>
<ellipse cx="678" cy="155.6" rx="2" ry="2"/>
<ellipse cx="650" cy="114.6" rx="2" ry="2"/>
<ellipse cx="724.2" cy="220.2" rx="2" ry="2"/>
<circle cx="688.6" cy="170.8" r="2"/>
<path d="M711.7,201.2c-1.1,0-2,0.9-2,2c0,1.1,0.9,2,2,2c1.1,0,2-0.9,2-2C713.7,202.1,712.8,201.2,711.7,201.2z"/>
<circle cx="699.8" cy="186.7" r="2"/>
<path d="M629,81.9c0-1.1-0.9-2-2-2c-1.1,0-2,0.9-2,2c0,1.1,0.9,2,2,2C628.1,83.9,629,83,629,81.9z"/>
<circle cx="594.7" cy="45.5" r="2"/>
<path d="M587.3,44.5c0.6,0,1.1-0.3,1.5-0.7c0.2,0.9,1,1.6,2,1.6c1.1,0,2-0.9,2-2s-0.9-2-2-2c-0.6,0-1.1,0.3-1.5,0.7
	c-0.2-0.9-1-1.6-2-1.6c-1.1,0-2,0.9-2,2C585.3,43.6,586.2,44.5,587.3,44.5z"/>
<ellipse cx="598.9" cy="48.8" rx="2" ry="2"/>
<circle cx="614.4" cy="65.3" r="2"/>
<circle cx="620.4" cy="73.1" r="2"/>
<circle cx="608.8" cy="58.7" r="2"/>
<circle cx="603.6" cy="53.1" r="2"/>
<ellipse cx="658" cy="94" rx="2" ry="2"/>
<circle cx="666.5" cy="105.2" r="2"/>
<circle cx="650" cy="83.6" r="2"/>
<circle cx="718.5" cy="173.9" r="2"/>
<ellipse cx="642.6" cy="74.3" rx="2" ry="2"/>
<circle cx="675.6" cy="117.4" r="2"/>
<path d="M695.8,142.2c-1.1,0-2,0.9-2,2c0,1.1,0.9,2,2,2c1.1,0,2-0.9,2-2C697.8,143.1,696.9,142.2,695.8,142.2z"/>
<circle cx="706.8" cy="158.7" r="2"/>
<circle cx="685.4" cy="130.4" r="2"/>
<circle cx="635.7" cy="66.1" r="2"/>
<path d="M675.5,23.3c-0.3-0.2-0.7-0.4-1.1-0.4c-1.1,0-2,0.9-2,2c0,0.5,0.2,0.9,0.5,1.2C673.8,25.2,674.6,24.3,675.5,23.3z"/>
<circle cx="714.8" cy="32.9" r="2"/>
<ellipse cx="707.1" cy="27.8" rx="2" ry="2"/>
<path d="M700,25.6c1.1,0,2-0.9,2-2c0-1.1-0.9-2-2-2c-1.1,0-2,0.9-2,2C698,24.7,698.9,25.6,700,25.6z"/>
<circle cx="720.4" cy="19.7" r="2"/>
<path d="M509.1,59.5c0.7,0,1.4-0.4,1.7-1c0,0,0.1,0,0.1,0c0.3,0,0.6-0.1,0.8-0.2c0.3,0.3,0.8,0.4,1.2,0.4c0.1,0,0.2,0,0.3,0
	c0.2,0.9,1,1.5,1.9,1.5c0.2,0,0.5-0.1,0.7-0.1c-0.1,0.2-0.2,0.5-0.2,0.8c0,1.1,0.9,2,2,2c1.1,0,2-0.9,2-2c0-1.1-0.9-2-2-2
	c-0.2,0-0.5,0.1-0.7,0.1c0.1-0.2,0.2-0.5,0.2-0.8c0-1.1-0.9-2-2-2c-0.1,0-0.2,0-0.3,0c-0.2-0.9-1-1.5-1.9-1.5
	c-0.3,0-0.6,0.1-0.8,0.2c-0.3-0.3-0.8-0.4-1.2-0.4c-0.7,0-1.4,0.4-1.7,1c0,0-0.1,0-0.1,0c-1.1,0-2,0.9-2,2
	C507,58.6,507.9,59.5,509.1,59.5z"/>
<circle cx="566.6" cy="170" r="2"/>
<circle cx="596" cy="241" r="2"/>
<path d="M588,224.1c1.1,0,2-0.9,2-2c0-1.1-0.9-2-2-2c-1.1,0-2,0.9-2,2C585.9,223.2,586.8,224.1,588,224.1z"/>
<circle cx="580.4" cy="203.9" r="2"/>
<ellipse cx="573.3" cy="186.5" rx="2" ry="2"/>
<circle cx="622.9" cy="301.5" r="2"/>
<ellipse cx="560.3" cy="154.5" rx="2" ry="2"/>
<circle cx="632.9" cy="322.5" r="2"/>
<ellipse cx="613.4" cy="280.8" rx="2" ry="2"/>
<ellipse cx="604.5" cy="260.6" rx="2" ry="2"/>
<ellipse cx="643.4" cy="343.9" rx="2" ry="2"/>
<circle cx="530.7" cy="84" r="2"/>
<circle cx="527" cy="76.4" r="2"/>
<path d="M518.5,64.8c0,1.1,0.9,2,2,2c1.1,0,2-0.9,2-2s-0.9-2-2-2C519.4,62.8,518.5,63.7,518.5,64.8z"/>
<path d="M541.1,102.9c0-1.1-0.9-2-2-2c-1.1,0-2,0.9-2,2s0.9,2,2,2C540.2,104.9,541.1,104,541.1,102.9z"/>
<path d="M543.9,116.2c1.1,0,2-0.9,2-2c0-1.1-0.9-2-2-2c-1.1,0-2,0.9-2,2C541.9,115.2,542.8,116.2,543.9,116.2z"/>
<ellipse cx="549" cy="126.5" rx="2" ry="2"/>
<circle cx="534.8" cy="92.9" r="2"/>
<circle cx="554.4" cy="140" r="2"/>
<circle cx="523.6" cy="70" r="2"/>
<ellipse cx="566.7" cy="120.5" rx="2" ry="2"/>
<circle cx="561.1" cy="108.6" r="2"/>
<circle cx="572.7" cy="133.5" r="2"/>
<circle cx="556" cy="97.8" r="2"/>
<ellipse cx="551.2" cy="88.1" rx="2" ry="2"/>
<circle cx="601" cy="195.5" r="2"/>
<circle cx="609.3" cy="213.2" r="2"/>
<circle cx="579.1" cy="147.6" r="2"/>
<circle cx="593.2" cy="178.7" r="2"/>
<circle cx="585.9" cy="162.7" r="2"/>
<circle cx="546.8" cy="79.6" r="2"/>
<circle cx="542.8" cy="72.3" r="2"/>
<path d="M525.2,56.3c0.4,0,0.8-0.1,1.1-0.4c0.3,0.2,0.7,0.3,1.1,0.3c0.2,0,0.4,0,0.6-0.1c0.3,0.7,1,1.3,1.9,1.3
	c0.3,0,0.6-0.1,0.8-0.2c-0.1,0.2-0.1,0.4-0.1,0.6c0,1.1,0.9,2,2,2c1.1,0,2-0.9,2-2c0-1.1-0.9-2-2-2c-0.3,0-0.6,0.1-0.8,0.2
	c0.1-0.2,0.1-0.4,0.1-0.6c0-1.1-0.9-2-2-2c-0.2,0-0.4,0-0.6,0.1c-0.3-0.7-1-1.3-1.9-1.3c-0.4,0-0.8,0.1-1.1,0.4
	c-0.3-0.2-0.7-0.3-1.1-0.3c-1.1,0-2,0.9-2,2c0,0.1,0,0.3,0,0.4c-0.8,0.1-1.5,0.6-1.7,1.4c0.6-0.3,1.3-0.6,1.9-0.8
	C523.8,55.9,524.4,56.3,525.2,56.3z"/>
<circle cx="539.1" cy="66.3" r="2"/>
<ellipse cx="535.7" cy="61.4" rx="2" ry="2"/>
<ellipse cx="647.4" cy="290.4" rx="2" ry="2"/>
<path d="M627.3,248.7c-1.1,0-2,0.9-2,2c0,1.1,0.9,2,2,2c1.1,0,2-0.9,2-2C629.3,249.6,628.4,248.7,627.3,248.7z"/>
<path d="M658.3,308.9c-1.1,0-2,0.9-2,2c0,1.1,0.9,2,2,2c1.1,0,2-0.9,2-2C660.3,309.8,659.4,308.9,658.3,308.9z"/>
<circle cx="618" cy="231.6" r="2"/>
<circle cx="637.1" cy="270.3" r="2"/>
<circle cx="694.3" cy="373.7" r="2"/>
<circle cx="681.7" cy="352.7" r="2"/>
<ellipse cx="669.7" cy="331.7" rx="2" ry="2"/>
<ellipse cx="606.7" cy="333.1" rx="2" ry="2"/>
<circle cx="573.4" cy="249.5" r="2"/>
<circle cx="597.7" cy="311.5" r="2"/>
<circle cx="589.1" cy="290.3" r="2"/>
<path d="M616.2,353c-0.6,0-1.2,0.3-1.5,0.7c-0.1,0-0.2,0-0.2,0c-1.1,0-2,0.9-2,2c0,1.1,0.9,2,2,2c0.6,0,1.2-0.3,1.5-0.7
	c0.1,0,0.2,0,0.2,0c1.1,0,2-0.9,2-2S617.3,353,616.2,353z"/>
<ellipse cx="626.1" cy="377.1" rx="2" ry="2"/>
<ellipse cx="581" cy="269.6" rx="2" ry="2"/>
<circle cx="526.3" cy="119.2" r="2"/>
<circle cx="535.8" cy="145.8" r="2"/>
<circle cx="530.9" cy="132" r="2"/>
<ellipse cx="522" cy="107.6" rx="2" ry="2"/>
<circle cx="546.8" cy="176.7" r="2"/>
<ellipse cx="552.8" cy="193.6" rx="2" ry="2"/>
<circle cx="559.3" cy="211.5" r="2"/>
<circle cx="541.1" cy="160.8" r="2"/>
<circle cx="566.1" cy="230.1" r="2"/>
<ellipse cx="654.4" cy="365.5" rx="2" ry="2"/>
<circle cx="518.1" cy="97.2" r="2"/>
<path d="M494.8,61.2c0.6,0,1.2-0.3,1.5-0.7c0,0,0.1,0,0.1,0c0.2,0,0.3,0,0.5-0.1c0.4,0.3,0.8,0.5,1.4,0.5c0,0,0.1,0,0.1,0
	c0.1,1,1,1.7,2,1.7c0.2,0,0.4,0,0.6-0.1c-0.2,0.3-0.3,0.7-0.3,1c0,1.1,0.9,2,2,2s2-0.9,2-2c0-1.1-0.9-2-2-2c-0.2,0-0.4,0-0.6,0.1
	c0.2-0.3,0.3-0.7,0.3-1c0-1.1-0.9-2-2-2c0,0-0.1,0-0.1,0c-0.1-1-1-1.7-2-1.7c-0.2,0-0.3,0-0.5,0.1c-0.4-0.3-0.8-0.5-1.4-0.5
	c-0.6,0-1.2,0.3-1.5,0.7c0,0-0.1,0-0.1,0c-1.1,0-2,0.9-2,2C492.8,60.3,493.7,61.2,494.8,61.2z"/>
<circle cx="511.1" cy="80" r="2"/>
<path d="M508,75.3c1.1,0,2-0.9,2-2c0-1.1-0.9-2-2-2c-1.1,0-2,0.9-2,2C506,74.4,506.9,75.3,508,75.3z"/>
<circle cx="505.2" cy="67.8" r="2"/>
<circle cx="514.4" cy="88" r="2"/>
<circle cx="623.3" cy="146.1" r="2"/>
<circle cx="631.7" cy="161" r="2"/>
<circle cx="608" cy="119.1" r="2"/>
<path d="M613.4,132.1c0,1.1,0.9,2,2,2c1.1,0,2-0.9,2-2c0-1.1-0.9-2-2-2C614.3,130.1,613.4,131,613.4,132.1z"/>
<ellipse cx="640.7" cy="176.8" rx="2" ry="2"/>
<ellipse cx="650.2" cy="193.3" rx="2" ry="2"/>
<circle cx="671" cy="228.4" r="2"/>
<path d="M680.2,246.8c0,1.1,0.9,2,2,2c1.1,0,2-0.9,2-2c0-1.1-0.9-2-2-2C681.1,244.8,680.2,245.7,680.2,246.8z"/>
<ellipse cx="660.3" cy="210.5" rx="2" ry="2"/>
<ellipse cx="601.2" cy="107" rx="2" ry="2"/>
<circle cx="565.6" cy="53.9" r="2"/>
<ellipse cx="694.1" cy="265.6" rx="2" ry="2"/>
<path d="M556.1,50.8c0.4,0,0.8-0.1,1.2-0.4c0.4,0.5,1,0.9,1.7,0.9c0.4,0,0.8-0.1,1.1-0.4c0,0,0,0,0,0c0,1.1,0.9,2,2,2
	c1.1,0,2-0.9,2-2s-0.9-2-2-2c-0.4,0-0.8,0.1-1.2,0.4c0,0,0,0,0,0c0-1.1-0.9-2-2-2c-0.4,0-0.8,0.1-1.2,0.4c-0.4-0.5-1-0.9-1.7-0.9
	c-1.1,0-2,0.9-2,2C554.1,50,555,50.8,556.1,50.8z"/>
<circle cx="573.7" cy="63.3" r="2"/>
<ellipse cx="588.8" cy="86.2" rx="2" ry="2"/>
<path d="M583.4,79.4c1.1,0,2-0.9,2-2c0-1.1-0.9-2-2-2c-1.1,0-2,0.9-2,2C581.3,78.5,582.2,79.4,583.4,79.4z"/>
<ellipse cx="578.3" cy="69.8" rx="2" ry="2"/>
<circle cx="594.8" cy="96" r="2"/>
<circle cx="569.4" cy="58" r="2"/>
<circle cx="584.3" cy="53.5" r="2"/>
<ellipse cx="580.2" cy="49.8" rx="2" ry="2"/>
<circle cx="617.8" cy="99.6" r="2"/>
<path d="M570.2,47.9c0.6,0,1.1-0.2,1.4-0.6c0.4,0.5,0.9,0.8,1.6,0.8c0.5,0,1-0.2,1.3-0.5c0.1,1,0.9,1.8,2,1.8c1.1,0,2-0.9,2-2
	c0-1.1-0.9-2-2-2c-0.5,0-1,0.2-1.3,0.5c-0.1-1-0.9-1.8-2-1.8c-0.6,0-1.1,0.2-1.4,0.6c-0.4-0.5-0.9-0.8-1.6-0.8c-1.1,0-2,0.9-2,2
	S569.1,47.9,570.2,47.9z"/>
<circle cx="588.8" cy="58.3" r="2"/>
<circle cx="611.1" cy="89.2" r="2"/>
<ellipse cx="599" cy="71.5" rx="2" ry="2"/>
<circle cx="593.7" cy="64.3" r="2"/>
<circle cx="691.7" cy="216.1" r="2"/>
<circle cx="659.7" cy="166.5" r="2"/>
<circle cx="650.2" cy="151.3" r="2"/>
<ellipse cx="641.3" cy="137" rx="2" ry="2"/>
<circle cx="632.9" cy="123.6" r="2"/>
<circle cx="703.6" cy="233.9" r="2"/>
<circle cx="669.7" cy="182.4" r="2"/>
<circle cx="716.2" cy="252" r="2"/>
<circle cx="625.1" cy="111.1" r="2"/>
<circle cx="680.4" cy="198.9" r="2"/>
<circle cx="604.8" cy="79.8" r="2"/>
<path d="M708.2,336.8c-1.1,0-2,0.9-2,2c0,1.1,0.9,2,2,2c1.1,0,2-0.9,2-2C710.2,337.7,709.3,336.8,708.2,336.8z"/>
<circle cx="695.2" cy="318.5" r="2"/>
<ellipse cx="660" cy="259" rx="2" ry="2"/>
<ellipse cx="671.2" cy="278.5" rx="2" ry="2"/>
<circle cx="706.7" cy="284.8" r="2"/>
<circle cx="649.5" cy="239.9" r="2"/>
<circle cx="682.9" cy="298.3" r="2"/>
<circle cx="584.1" cy="114" r="2"/>
<circle cx="639.5" cy="221.5" r="2"/>
<circle cx="597.5" cy="140.1" r="2"/>
<circle cx="578.1" cy="102.5" r="2"/>
<circle cx="590.6" cy="126.6" r="2"/>
<circle cx="604.9" cy="154.7" r="2"/>
<circle cx="630" cy="203.6" r="2"/>
<circle cx="621.1" cy="186.5" r="2"/>
<path d="M614.8,170.2c0-1.1-0.9-2-2-2c-1.1,0-2,0.9-2,2c0,1.1,0.9,2,2,2C613.8,172.2,614.8,171.3,614.8,170.2z"/>
<path d="M572.6,90.1c-1.1,0-2,0.9-2,2c0,1.1,0.9,2,2,2c1.1,0,2-0.9,2-2C574.6,91,573.7,90.1,572.6,90.1z"/>
<circle cx="721.8" cy="359.1" r="2"/>
<ellipse cx="567.4" cy="82.9" rx="2" ry="2"/>
<ellipse cx="719.8" cy="304.3" rx="2" ry="2"/>
<path d="M539.4,54c0.6,0,1.1-0.2,1.4-0.6c0.3,0.2,0.6,0.3,1,0.3c0.3,0,0.6-0.1,0.9-0.2c0.3,0.6,1,1.1,1.8,1.1c0.4,0,0.7-0.1,1-0.3
	c0,0.1,0,0.2,0,0.3c0,1.1,0.9,2,2,2c1.1,0,2-0.9,2-2c0-1.1-0.9-2-2-2c-0.4,0-0.7,0.1-1,0.3c0-0.1,0-0.2,0-0.3c0-1.1-0.9-2-2-2
	c-0.3,0-0.6,0.1-0.9,0.2c-0.3-0.6-1-1.1-1.8-1.1c-0.6,0-1.1,0.2-1.4,0.6c-0.3-0.2-0.6-0.3-1-0.3c-1.1,0-2,0.9-2,2
	C537.4,53.1,538.3,54,539.4,54z"/>
<ellipse cx="558.3" cy="68" rx="2" ry="2"/>
<circle cx="550.7" cy="57.8" r="2"/>
<path d="M564.7,74.9c0-1.1-0.9-2-2-2c-1.1,0-2,0.9-2,2c0,1.1,0.9,2,2,2C563.8,76.9,564.7,76,564.7,74.9z"/>
<circle cx="554.3" cy="62.3" r="2"/>
<circle cx="34.2" cy="39.3" r="2"/>
<path d="M145.2,35.8c0.5,0.3,1.1,0.7,1.6,1C146.5,36.3,145.9,35.9,145.2,35.8z"/>
<circle cx="44.1" cy="16.5" r="2"/>
<circle cx="29.2" cy="24.5" r="2"/>
<circle cx="20.8" cy="29.8" r="2"/>
<circle cx="36.9" cy="20" r="2"/>
<circle cx="11.7" cy="36.1" r="2"/>
<ellipse cx="2" cy="43.1" rx="2" ry="2"/>
<circle cx="37.7" cy="7.1" r="2"/>
<path d="M31.1,11c1.1,0,2-0.9,2-2c0-1.1-0.9-2-2-2c-1.1,0-2,0.9-2,2C29.1,10.1,30,11,31.1,11z"/>
<circle cx="24" cy="11.9" r="2"/>
<circle cx="56.5" cy="12.2" r="2"/>
<circle cx="15.6" cy="54" r="2"/>
<circle cx="5.3" cy="62.6" r="2"/>
<circle cx="25.2" cy="46.2" r="2"/>
<circle cx="50.6" cy="13.9" r="2"/>
<circle cx="16.2" cy="15.7" r="2"/>
<circle cx="7.8" cy="20.3" r="2"/>
<circle cx="11.3" cy="3.8" r="2"/>
<circle cx="3.5" cy="6.9" r="2"/>
<circle cx="32.8" cy="344.9" r="2"/>
<ellipse cx="304" cy="278.2" rx="2" ry="2"/>
<ellipse cx="294.5" cy="345.3" rx="2" ry="2"/>
<circle cx="297.9" cy="322.3" r="2"/>
<ellipse cx="301" cy="299.9" rx="2" ry="2"/>
<ellipse cx="291" cy="368.7" rx="2" ry="2"/>
<ellipse cx="266.8" cy="340.9" rx="2" ry="2"/>
<path d="M271.2,316.2c-1.1,0-2,0.9-2,2c0,1.1,0.9,2,2,2c1.1,0,2-0.9,2-2C273.2,317.1,272.3,316.2,271.2,316.2z"/>
<circle cx="293.2" cy="196.3" r="2"/>
<circle cx="313.4" cy="83.2" r="2"/>
<path d="M308.1,121.4c0-1.1-0.9-2-2-2c-1.1,0-2,0.9-2,2c0,1.1,0.9,2,2,2C307.2,123.4,308.1,122.5,308.1,121.4z"/>
<ellipse cx="311.8" cy="90.8" rx="2" ry="2"/>
<circle cx="310" cy="99.7" r="2"/>
<circle cx="314.9" cy="76.8" r="2"/>
<path d="M316.2,73.8c1.1,0,2-0.9,2-2c0-0.8-0.4-1.4-1.1-1.8c0.1,0,0.2,0,0.3,0c1.1,0,2-0.9,2-2c0-0.2,0-0.4-0.1-0.6
	c0.1-0.1,0.3-0.1,0.4-0.2c0.1,0.1,0.1,0.1,0.2,0.2c-0.1,0.3-0.2,0.5-0.2,0.8c0,1.1,0.9,2,2,2c1.1,0,2-0.9,2-2c0-0.7-0.3-1.3-0.9-1.6
	c0.1-0.3,0.2-0.5,0.2-0.8c0-0.6-0.3-1.2-0.8-1.6c-0.1-1-1-1.7-2-1.7c-0.1,0-0.2,0-0.3,0c-0.2-0.1-0.4-0.1-0.5-0.1
	c-0.9,0-1.7,0.6-1.9,1.4c-0.6,0.3-1.1,1-1.1,1.8c0,0.2,0,0.4,0.1,0.6c-0.7,0.3-1.2,1-1.2,1.8c0,0.8,0.4,1.4,1.1,1.8
	c-0.1,0-0.2,0-0.3,0c-1.1,0-2,0.9-2,2C314.2,72.9,315.1,73.8,316.2,73.8z"/>
<path d="M298.2,179.1c0-1.1-0.9-2-2-2c-1.1,0-2,0.9-2,2c0,1.1,0.9,2,2,2C297.3,181.2,298.2,180.2,298.2,179.1z"/>
<circle cx="286.7" cy="233.7" r="2"/>
<circle cx="290.1" cy="214.5" r="2"/>
<path d="M283.2,251.7c-1.1,0-2,0.9-2,2c0,1.1,0.9,2,2,2s2-0.9,2-2C285.2,252.6,284.3,251.7,283.2,251.7z"/>
<ellipse cx="279.4" cy="274.5" rx="2" ry="2"/>
<circle cx="298.9" cy="163" r="2"/>
<circle cx="303.9" cy="134.1" r="2"/>
<path d="M303.5,148c0-1.1-0.9-2-2-2c-1.1,0-2,0.9-2,2c0,1.1,0.9,2,2,2C302.6,150,303.5,149.1,303.5,148z"/>
<circle cx="275.4" cy="296" r="2"/>
<path d="M347.4,75.8c1.1,0,2-0.9,2-2c0-1-0.7-1.8-1.6-2c0.1,0,0.1,0,0.2,0c0.7,0,1.2-0.3,1.6-0.8c0.2,0.1,0.4,0.1,0.6,0.1
	c1.1,0,2-0.9,2-2c0-0.5-0.2-1-0.6-1.4c0.1-0.3,0.2-0.6,0.2-0.9c0-0.4-0.1-0.8-0.4-1.2c0-1.1-0.9-1.9-2-1.9c-0.3,0-0.5,0.1-0.7,0.1
	c-1,0.1-1.7,1-1.7,2c0,0,0,0,0,0.1c-0.3,0.4-0.5,0.8-0.5,1.3c0,0.4,0.1,0.7,0.3,1c-0.5,0.4-0.8,1-0.8,1.6c0,1,0.7,1.8,1.6,2
	c-0.1,0-0.1,0-0.2,0c-1.1,0-2,0.9-2,2C345.4,74.9,346.3,75.8,347.4,75.8z"/>
<ellipse cx="320.1" cy="371.9" rx="2" ry="2"/>
<ellipse cx="322.5" cy="348.4" rx="2" ry="2"/>
<ellipse cx="324.7" cy="325.3" rx="2" ry="2"/>
<path d="M328.9,278.8c-1.1,0-2,0.9-2,2c0,1.1,0.9,2,2,2c1.1,0,2-0.9,2-2C330.9,279.7,330,278.8,328.9,278.8z"/>
<ellipse cx="330.8" cy="259.7" rx="2" ry="2"/>
<circle cx="332.5" cy="239.3" r="2"/>
<circle cx="326.9" cy="302.7" r="2"/>
<circle cx="334.2" cy="219.8" r="2"/>
<ellipse cx="346.7" cy="79.1" rx="2" ry="2"/>
<path d="M146.5,354c-1.1,0-2,0.9-2,2s0.9,2,2,2c1.1,0,2-0.9,2-2S147.6,354,146.5,354z"/>
<circle cx="342.3" cy="124.9" r="2"/>
<circle cx="340" cy="152" r="2"/>
<circle cx="338.7" cy="167.3" r="2"/>
<circle cx="341.2" cy="137.9" r="2"/>
<ellipse cx="337.3" cy="183.8" rx="2" ry="2"/>
<circle cx="343.3" cy="113.2" r="2"/>
<circle cx="345.2" cy="93.5" r="2"/>
<path d="M344.3,100.7c-1.1,0-2,0.9-2,2c0,1.1,0.9,2,2,2c1.1,0,2-0.9,2-2C346.3,101.6,345.4,100.7,344.3,100.7z"/>
<circle cx="335.8" cy="201.3" r="2"/>
<path d="M346,83.7c-1.1,0-2,0.9-2,2c0,1.1,0.9,2,2,2c1.1,0,2-0.9,2-2C348,84.6,347.1,83.7,346,83.7z"/>
<circle cx="329.6" cy="84.6" r="2"/>
<path d="M331.8,75c1.1,0,2-0.9,2-2c0-0.9-0.5-1.6-1.3-1.9c0.1,0,0.1,0,0.2,0c0.8,0,1.4-0.4,1.8-1.1c0.4,0.4,0.9,0.7,1.5,0.7
	c1.1,0,2-0.9,2-2c0-0.6-0.3-1.1-0.7-1.5c0.1-0.3,0.2-0.6,0.2-0.9c0-0.6-0.2-1.1-0.6-1.4c-0.1-1-1-1.8-2-1.8c-0.2,0-0.3,0-0.5,0.1
	c-0.1,0-0.1,0-0.2,0c-1,0-1.9,0.8-2,1.8c-0.5,0.4-0.8,0.9-0.8,1.6c0,0.3,0.1,0.6,0.2,0.8c-0.6,0.4-1,1-1,1.7c0,0.9,0.5,1.6,1.3,1.9
	c-0.1,0-0.1,0-0.2,0c-1.1,0-2,0.9-2,2S330.6,75,331.8,75z"/>
<circle cx="330.8" cy="78.1" r="2"/>
<circle cx="327.1" cy="101.5" r="2"/>
<path d="M328.4,94.4c1.1,0,2-0.9,2-2c0-1.1-0.9-2-2-2c-1.1,0-2,0.9-2,2C326.4,93.5,327.3,94.4,328.4,94.4z"/>
<ellipse cx="306.9" cy="257.2" rx="2" ry="2"/>
<circle cx="312.1" cy="217.6" r="2"/>
<circle cx="314.4" cy="199.2" r="2"/>
<path d="M316.6,179.8c-1.1,0-2,0.9-2,2c0,1.1,0.9,2,2,2c1.1,0,2-0.9,2-2C318.7,180.7,317.8,179.8,316.6,179.8z"/>
<ellipse cx="309.5" cy="237" rx="2" ry="2"/>
<circle cx="322.5" cy="136.3" r="2"/>
<circle cx="318.7" cy="165.5" r="2"/>
<circle cx="324.1" cy="123.4" r="2"/>
<circle cx="320.7" cy="150.3" r="2"/>
<circle cx="325.7" cy="111.8" r="2"/>
<ellipse cx="308.1" cy="110" rx="2" ry="2"/>
<circle cx="251.4" cy="188.2" r="2"/>
<circle cx="267.1" cy="127.9" r="2"/>
<path d="M255.7,169.5c-1.1,0-2,0.9-2,2c0,1.1,0.9,2,2,2c1.1,0,2-0.9,2-2C257.7,170.4,256.9,169.5,255.7,169.5z"/>
<circle cx="270.4" cy="115.7" r="2"/>
<circle cx="259.8" cy="155.8" r="2"/>
<circle cx="263.6" cy="141.3" r="2"/>
<ellipse cx="273.4" cy="104.6" rx="2" ry="2"/>
<circle cx="278.8" cy="86.3" r="2"/>
<ellipse cx="276.2" cy="94.8" rx="2" ry="2"/>
<circle cx="281.2" cy="79" r="2"/>
<ellipse cx="219" cy="306.6" rx="2" ry="2"/>
<ellipse cx="212.4" cy="328.7" rx="2" ry="2"/>
<ellipse cx="205.5" cy="351.2" rx="2" ry="2"/>
<circle cx="198.3" cy="374" r="2"/>
<ellipse cx="225.2" cy="285" rx="2" ry="2"/>
<ellipse cx="236.6" cy="243.9" rx="2" ry="2"/>
<circle cx="241.8" cy="224.4" r="2"/>
<ellipse cx="283.3" cy="73.1" rx="2" ry="2"/>
<ellipse cx="231.1" cy="264.1" rx="2" ry="2"/>
<path d="M246.8,207.8c1.1,0,2-0.9,2-2c0-1.1-0.9-2-2-2c-1.1,0-2,0.9-2,2C244.8,206.9,245.7,207.8,246.8,207.8z"/>
<ellipse cx="230.9" cy="182.9" rx="2" ry="2"/>
<circle cx="235.9" cy="166.6" r="2"/>
<circle cx="259.5" cy="91.7" r="2"/>
<circle cx="240.6" cy="151.3" r="2"/>
<circle cx="219.9" cy="218.5" r="2"/>
<path d="M256.3,103.2c1.1,0,2-0.9,2-2c0-1.1-0.9-2-2-2c-1.1,0-2,0.9-2,2C254.3,102.3,255.2,103.2,256.3,103.2z"/>
<path d="M252.8,114c1.1,0,2-0.9,2-2c0-1.1-0.9-2-2-2c-1.1,0-2,0.9-2,2C250.8,113.1,251.7,114,252.8,114z"/>
<ellipse cx="245" cy="137" rx="2" ry="2"/>
<ellipse cx="213.8" cy="237.6" rx="2" ry="2"/>
<circle cx="249" cy="123.9" r="2"/>
<circle cx="225.6" cy="200.2" r="2"/>
<path d="M169.6,363.3c-1.1,0-2,0.9-2,2c0,1.1,0.9,2,2,2c1.1,0,2-0.9,2-2C171.6,364.2,170.7,363.3,169.6,363.3z"/>
<path d="M207.4,255.4c-1.1,0-2,0.9-2,2c0,1.1,0.9,2,2,2c1.1,0,2-0.9,2-2C209.5,256.3,208.6,255.4,207.4,255.4z"/>
<circle cx="193.5" cy="299.1" r="2"/>
<ellipse cx="200.7" cy="278" rx="2" ry="2"/>
<circle cx="186" cy="320.8" r="2"/>
<ellipse cx="178" cy="342.9" rx="2" ry="2"/>
<ellipse cx="262.5" cy="83.4" rx="2" ry="2"/>
<path d="M270,68.2c1.1,0,2-0.9,2-2c0-0.5-0.2-0.9-0.5-1.3c0.2,0,0.3,0.1,0.5,0.1c1.1,0,2-0.9,2-2c0.5,0,1-0.3,1.4-0.7
	c0,0,0.1,0,0.1,0c0,0,0.1,0,0.1,0c0.2,0.2,0.4,0.3,0.6,0.4c0.1,1,0.9,1.9,2,1.9c1.1,0,2-0.9,2-2c0-0.9-0.5-1.6-1.3-1.9
	c-0.1-1-0.9-1.9-2-1.9c0,0-0.1,0-0.1,0c-0.4-0.3-0.8-0.5-1.3-0.5c-0.6,0-1.2,0.3-1.5,0.7c0,0-0.1,0-0.1,0c-1.1,0-2,0.9-2,2
	c-1,0.1-1.8,0.9-1.8,2c0,0.5,0.2,0.9,0.5,1.3c-0.2,0-0.3-0.1-0.5-0.1c-1.1,0-2,0.9-2,2C267.9,67.3,268.8,68.2,270,68.2z"/>
<circle cx="265.2" cy="76.4" r="2"/>
<circle cx="267.7" cy="70.7" r="2"/>
<circle cx="264.1" cy="229.5" r="2"/>
<circle cx="279.2" cy="159.8" r="2"/>
<circle cx="288.2" cy="118.8" r="2"/>
<circle cx="285.4" cy="131.3" r="2"/>
<ellipse cx="233.6" cy="358.2" rx="2" ry="2"/>
<ellipse cx="282.4" cy="145" rx="2" ry="2"/>
<circle cx="290.7" cy="107.5" r="2"/>
<circle cx="295.2" cy="88.8" r="2"/>
<circle cx="299" cy="75.1" r="2"/>
<path d="M300.7,72.2c1.1,0,2-0.9,2-2c0-0.7-0.3-1.3-0.8-1.6c0.1,0,0.2,0,0.3,0c1.1,0,2-0.9,2-2c0-0.1,0-0.3,0-0.4
	c0.3-0.1,0.6-0.3,0.8-0.5c0.2,0.3,0.5,0.6,0.8,0.8c-0.1,0.3-0.2,0.5-0.2,0.8c0,1.1,0.9,2,2,2c1.1,0,2-0.9,2-2c0-0.7-0.4-1.4-1-1.7
	c0.1-0.3,0.2-0.5,0.2-0.8c0-0.7-0.4-1.4-1-1.7c-0.2-1-1-1.7-2-1.7c-0.1,0-0.1,0-0.2,0c-0.3-0.1-0.6-0.2-0.9-0.2
	c-0.8,0-1.5,0.5-1.8,1.2c-0.8,0.3-1.4,1-1.4,1.9c0,0.1,0,0.3,0,0.4c-0.8,0.3-1.4,1-1.4,1.9c0,0.7,0.3,1.3,0.8,1.6
	c-0.1,0-0.2,0-0.3,0c-1.1,0-2,0.9-2,2C298.7,71.3,299.6,72.2,300.7,72.2z"/>
<circle cx="297.2" cy="81.3" r="2"/>
<circle cx="250.1" cy="291.1" r="2"/>
<circle cx="255.1" cy="269.8" r="2"/>
<circle cx="244.9" cy="313" r="2"/>
<ellipse cx="239.4" cy="335.4" rx="2" ry="2"/>
<circle cx="272.2" cy="192.6" r="2"/>
<path d="M275.8,177.7c1.1,0,2-0.9,2-2c0-1.1-0.9-2-2-2c-1.1,0-2,0.9-2,2C273.8,176.8,274.7,177.7,275.8,177.7z"/>
<ellipse cx="268.3" cy="210.6" rx="2" ry="2"/>
<circle cx="259.7" cy="249.3" r="2"/>
<ellipse cx="293.1" cy="97.5" rx="2" ry="2"/>
<path d="M285.3,70.4c1.1,0,2-0.9,2-2c0-0.6-0.2-1.1-0.6-1.4c0.1,0,0.2,0,0.4,0c1.1,0,2-0.9,2-2c0-0.1,0-0.1,0-0.2
	c0.5-0.1,1-0.4,1.2-0.8c0.1,0,0.1,0.1,0.2,0.1c0.1,0.8,0.7,1.5,1.5,1.7c-0.3,0.3-0.5,0.7-0.5,1.1c1.3,0.2,2.6,0.4,3.9,0.6
	c0-0.1,0.1-0.3,0.1-0.4c0-0.9-0.6-1.7-1.5-1.9c0.3-0.4,0.6-0.8,0.6-1.4c0-0.8-0.5-1.5-1.1-1.8c-0.1-1-1-1.7-2-1.7c0,0-0.1,0-0.1,0
	c-0.3-0.2-0.7-0.4-1.1-0.4c-0.7,0-1.3,0.4-1.7,0.9c-1,0.1-1.7,1-1.7,2c0,0.1,0,0.1,0,0.2c-0.9,0.2-1.6,1-1.6,2
	c0,0.6,0.2,1.1,0.6,1.4c-0.1,0-0.3,0-0.4,0c-1.1,0-2,0.9-2,2C283.3,69.5,284.2,70.4,285.3,70.4z"/>
<path d="M20.3,2c0-1.1-0.9-2-2-2c-0.5,0-1,0.2-1.4,0.6c0.8,1,1.7,2.1,2.5,3.1C19.9,3.3,20.3,2.7,20.3,2z"/>
<path d="M129.6,204c0-1.1-0.9-2-2-2c-1.1,0-2,0.9-2,2c0,1.1,0.9,2,2,2C128.7,206,129.6,205.1,129.6,204z"/>
<ellipse cx="86.5" cy="278.9" rx="2" ry="2"/>
<path d="M99.6,259.4c0-1.1-0.9-2-2-2s-2,0.9-2,2c0,1.1,0.9,2,2,2S99.6,260.5,99.6,259.4z"/>
<circle cx="108.1" cy="240.3" r="2"/>
<circle cx="118.1" cy="221.8" r="2"/>
<circle cx="62.5" cy="319" r="2"/>
<path d="M36,357.6c-1.1,0-2,0.9-2,2s0.9,2,2,2c1.1,0,2-0.9,2-2S37.2,357.6,36,357.6z"/>
<ellipse cx="49.6" cy="339.3" rx="2" ry="2"/>
<circle cx="74.8" cy="298.8" r="2"/>
<ellipse cx="194.7" cy="75" rx="2" ry="2"/>
<circle cx="179.3" cy="102.7" r="2"/>
<circle cx="184.9" cy="92.4" r="2"/>
<ellipse cx="190" cy="83.1" rx="2" ry="2"/>
<path d="M173.3,116.3c1.1,0,2-0.9,2-2c0-1.1-0.9-2-2-2c-1.1,0-2,0.9-2,2C171.3,115.4,172.2,116.3,173.3,116.3z"/>
<ellipse cx="144.8" cy="170.5" rx="2" ry="2"/>
<path d="M152.7,157c1.1,0,2-0.9,2-2c0-1.1-0.9-2-2-2c-1.1,0-2,0.9-2,2C150.6,156.1,151.5,157,152.7,157z"/>
<path d="M160,142.4c1.1,0,2-0.9,2-2c0-1.1-0.9-2-2-2c-1.1,0-2,0.9-2,2C158,141.5,158.9,142.4,160,142.4z"/>
<circle cx="166.9" cy="126.8" r="2"/>
<path d="M201.1,68.1c0-1.1-0.9-2-2-2c-1.1,0-2,0.9-2,2c0,1.1,0.9,2,2,2C200.2,70.1,201.1,69.2,201.1,68.1z"/>
<circle cx="203" cy="62.4" r="2"/>
<circle cx="206.7" cy="57.9" r="2"/>
<path d="M209.9,56.7c1.1,0,2-0.9,2-2c0-0.1,0-0.2,0-0.3c0.3,0.2,0.6,0.3,1,0.3c0.8,0,1.4-0.4,1.8-1.1c0.3,0.1,0.6,0.2,0.9,0.2
	c0.4,0,0.7-0.1,1-0.3c0.4,0.4,0.9,0.6,1.4,0.6c0.1,0,0.1,0,0.2,0c0.2,0.9,1,1.5,1.9,1.5c1.1,0,2-0.9,2-2c0-1.1-0.9-2-2-2
	c-0.1,0-0.1,0-0.2,0c-0.2-0.9-1-1.5-1.9-1.5c-0.3,0-0.7,0.1-1,0.3c-0.4-0.4-0.9-0.6-1.4-0.6c-0.8,0-1.4,0.4-1.8,1.1
	c-0.3-0.1-0.6-0.2-0.9-0.2c-1.1,0-2,0.9-2,2c0,0.1,0,0.2,0,0.3c-0.3-0.2-0.6-0.3-1-0.3c-1.1,0-2,0.9-2,2
	C207.9,55.8,208.8,56.7,209.9,56.7z"/>
<path d="M136.4,188.8c1.1,0,2-0.9,2-2c0-1.1-0.9-2-2-2c-1.1,0-2,0.9-2,2C134.4,187.9,135.3,188.8,136.4,188.8z"/>
<path d="M180.8,49.5c1.1,0,1.9-0.8,2-1.8c0.4,0.3,0.8,0.5,1.3,0.5c0.6,0,1.2-0.3,1.6-0.8c0.4,0.4,0.9,0.6,1.4,0.6
	c0.3,0,0.6-0.1,0.8-0.2c0.3,0.7,1,1.2,1.8,1.2c1.1,0,2-0.9,2-2c0-1.1-0.9-2-2-2c-0.3,0-0.6,0.1-0.8,0.2c-0.3-0.7-1-1.2-1.8-1.2
	c-0.6,0-1.2,0.3-1.6,0.8c-0.4-0.4-0.9-0.6-1.4-0.6c-1.1,0-1.9,0.8-2,1.8c-0.4-0.3-0.8-0.5-1.3-0.5c-1.1,0-2,0.9-2,2
	S179.7,49.5,180.8,49.5z"/>
<circle cx="158.4" cy="71.7" r="2"/>
<ellipse cx="168.6" cy="58.5" rx="2" ry="2"/>
<circle cx="177.2" cy="50" r="2"/>
<circle cx="163.7" cy="64.5" r="2"/>
<path d="M175.1,53.7c0-1.1-0.9-2-2-2c-1.1,0-2,0.9-2,2c0,1.1,0.9,2,2,2C174.2,55.7,175.1,54.8,175.1,53.7z"/>
<path d="M195.3,53.2c1.1,0,2-0.9,2-2c0,0,0,0,0-0.1c0.3,0.2,0.7,0.4,1.1,0.4c0.7,0,1.3-0.4,1.7-0.9c0.3,0.2,0.7,0.4,1.2,0.4
	c0.3,0,0.6-0.1,0.9-0.2c0.4,0.5,1,0.8,1.6,0.8c0.1,0,0.1,0,0.2,0c0,0.1,0,0.2,0.1,0.3c1,0.4,2,0.8,3,1.3c0.6-0.4,1-1,1-1.7
	c0-1.1-0.9-2-2-2c-0.1,0-0.1,0-0.2,0c0-1.1-0.9-1.9-2-1.9c-0.3,0-0.6,0.1-0.9,0.2c-0.4-0.5-1-0.8-1.6-0.8c-0.7,0-1.3,0.4-1.7,0.9
	c-0.3-0.2-0.7-0.4-1.1-0.4c-1.1,0-2,0.9-2,2c0,0,0,0,0,0.1c-0.3-0.2-0.7-0.4-1.1-0.4c-1.1,0-2,0.9-2,2
	C193.3,52.3,194.2,53.2,195.3,53.2z"/>
<circle cx="152.6" cy="80" r="2"/>
<circle cx="14.3" cy="289.8" r="2"/>
<ellipse cx="28.2" cy="271" rx="2" ry="2"/>
<ellipse cx="54" cy="234.3" rx="2" ry="2"/>
<ellipse cx="41.4" cy="252.5" rx="2" ry="2"/>
<ellipse cx="65.9" cy="216.6" rx="2" ry="2"/>
<circle cx="132.3" cy="111.4" r="2"/>
<circle cx="124.5" cy="123.9" r="2"/>
<circle cx="139.6" cy="99.9" r="2"/>
<circle cx="77.1" cy="199.4" r="2"/>
<ellipse cx="146.3" cy="89.4" rx="2" ry="2"/>
<circle cx="116.2" cy="137.3" r="2"/>
<circle cx="97.9" cy="166.8" r="2"/>
<circle cx="87.8" cy="182.8" r="2"/>
<circle cx="107.3" cy="151.7" r="2"/>
<path d="M116.9,179.1c1.1,0,2-0.9,2-2s-0.9-2-2-2c-1.1,0-2,0.9-2,2S115.7,179.1,116.9,179.1z"/>
<circle cx="107.4" cy="193.7" r="2"/>
<circle cx="125.8" cy="161.4" r="2"/>
<circle cx="142.1" cy="132.4" r="2"/>
<circle cx="134.2" cy="146.4" r="2"/>
<circle cx="97.3" cy="210.9" r="2"/>
<circle cx="51" cy="285.3" r="2"/>
<ellipse cx="86.6" cy="228.8" rx="2" ry="2"/>
<ellipse cx="63.5" cy="266.1" rx="2" ry="2"/>
<circle cx="75.4" cy="247.2" r="2"/>
<circle cx="37.9" cy="304.8" r="2"/>
<circle cx="188" cy="58.2" r="2"/>
<circle cx="179.1" cy="69.9" r="2"/>
<circle cx="191.8" cy="54.1" r="2"/>
<circle cx="174.1" cy="77.6" r="2"/>
<circle cx="156.3" cy="107.3" r="2"/>
<circle cx="162.7" cy="96.3" r="2"/>
<circle cx="149.4" cy="119.3" r="2"/>
<circle cx="168.6" cy="86.4" r="2"/>
<ellipse cx="183.7" cy="63.5" rx="2" ry="2"/>
<circle cx="24.1" cy="324.4" r="2"/>
<path d="M9.7,342.1c-1.1,0-2,0.9-2,2c0,1.1,0.9,2,2,2c1.1,0,2-0.9,2-2C11.7,343,10.8,342.1,9.7,342.1z"/>
<circle cx="88" cy="332.2" r="2"/>
<circle cx="141.7" cy="355.4" r="2"/>
<ellipse cx="131.8" cy="377.5" rx="2" ry="2"/>
<circle cx="230.4" cy="76.5" r="2"/>
<path d="M239.7,63c1.1,0,2-0.9,2-2c0-0.3-0.1-0.6-0.2-0.8c0.2,0.1,0.4,0.1,0.7,0.1c0.9,0,1.7-0.6,1.9-1.5c0.1,0,0.2,0,0.3,0
	c0.5,0,0.9-0.2,1.2-0.4c0.2,0.1,0.5,0.2,0.8,0.2c0,0,0.1,0,0.1,0c0.3,0.5,0.7,0.8,1.3,0.9c0,0.1,0,0.1,0,0.2c0,1.1,0.9,2,2,2
	c1.1,0,2-0.9,2-2c0-1-0.7-1.8-1.6-2c0-0.1,0-0.1,0-0.2c0-1.1-0.9-2-2-2c0,0-0.1,0-0.1,0c-0.4-0.6-1-1-1.7-1c-0.5,0-0.9,0.2-1.2,0.4
	c-0.2-0.1-0.5-0.2-0.8-0.2c-0.9,0-1.7,0.6-1.9,1.5c-0.1,0-0.2,0-0.3,0c-1.1,0-2,0.9-2,2c0,0.3,0.1,0.6,0.2,0.8
	c-0.2-0.1-0.4-0.1-0.7-0.1c-1.1,0-2,0.9-2,2C237.7,62.1,238.6,63,239.7,63z"/>
<ellipse cx="236.9" cy="64.9" rx="2" ry="2"/>
<circle cx="233.8" cy="70.1" r="2"/>
<ellipse cx="660.6" cy="30.3" rx="2" ry="2"/>
<circle cx="679.6" cy="43.6" r="2"/>
<ellipse cx="672.7" cy="38.1" rx="2" ry="2"/>
<circle cx="666.4" cy="33.7" r="2"/>
<circle cx="151.1" cy="333.5" r="2"/>
<circle cx="687.1" cy="50" r="2"/>
<circle cx="723.1" cy="85.1" r="2"/>
<circle cx="695.1" cy="57.4" r="2"/>
<circle cx="703.8" cy="65.8" r="2"/>
<circle cx="713.1" cy="75" r="2"/>
<ellipse cx="198.3" cy="211.7" rx="2" ry="2"/>
<circle cx="204.7" cy="193.9" r="2"/>
<path d="M254.8,65.7c1.1,0,2-0.9,2-2c0-0.4-0.1-0.7-0.3-1c0.2,0.1,0.4,0.1,0.6,0.1c1,0,1.8-0.8,2-1.7c0,0,0,0,0.1,0
	c0.5,0,1-0.2,1.4-0.5c0.2,0,0.3,0.1,0.5,0.1c0,0,0.1,0,0.1,0c0.2,0.3,0.6,0.5,1,0.6c0,1.1,0.9,2,2,2c1.1,0,2-0.9,2-2
	c0-0.9-0.6-1.7-1.4-1.9c0-1.1-0.9-2-2-2c0,0-0.1,0-0.1,0c-0.4-0.4-0.9-0.7-1.5-0.7c-0.5,0-1,0.2-1.4,0.5c-0.2,0-0.3-0.1-0.5-0.1
	c-1,0-1.8,0.8-2,1.7c0,0,0,0-0.1,0c-1.1,0-2,0.9-2,2c0,0.4,0.1,0.7,0.3,1c-0.2-0.1-0.4-0.1-0.6-0.1c-1.1,0-2,0.9-2,2
	C252.7,64.8,253.6,65.7,254.8,65.7z"/>
<path d="M210.8,179c1.1,0,2-0.9,2-2s-0.9-2-2-2c-1.1,0-2,0.9-2,2S209.6,179,210.8,179z"/>
<circle cx="160.1" cy="311.8" r="2"/>
<circle cx="168.6" cy="290.6" r="2"/>
<circle cx="184.3" cy="249.8" r="2"/>
<circle cx="216.4" cy="161" r="2"/>
<ellipse cx="176.7" cy="269.9" rx="2" ry="2"/>
<path d="M193.5,230.4c0-1.1-0.9-2-2-2c-1.1,0-2,0.9-2,2c0,1.1,0.9,2,2,2C192.6,232.4,193.5,231.5,193.5,230.4z"/>
<circle cx="243" cy="88.1" r="2"/>
<ellipse cx="249.4" cy="73.4" rx="2" ry="2"/>
<circle cx="246.4" cy="80.2" r="2"/>
<circle cx="252.2" cy="67.9" r="2"/>
<circle cx="221.7" cy="146" r="2"/>
<path d="M226.6,130.1c-1.1,0-2,0.9-2,2s0.9,2,2,2c1.1,0,2-0.9,2-2S227.7,130.1,226.6,130.1z"/>
<ellipse cx="231.2" cy="119.4" rx="2" ry="2"/>
<circle cx="235.4" cy="107.8" r="2"/>
<circle cx="239.4" cy="97.3" r="2"/>
<circle cx="201.5" cy="97.9" r="2"/>
<circle cx="218.3" cy="66.4" r="2"/>
<circle cx="221.7" cy="61.6" r="2"/>
<circle cx="214.6" cy="72.5" r="2"/>
<path d="M224.7,60c1.1,0,2-0.9,2-2c0-0.2,0-0.4-0.1-0.6c0.3,0.1,0.5,0.2,0.8,0.2c0.9,0,1.6-0.5,1.9-1.3c0.2,0.1,0.4,0.1,0.6,0.1
	c0.4,0,0.8-0.1,1.1-0.3c0.3,0.2,0.7,0.3,1.1,0.3c0,0,0.1,0,0.1,0c0.3,0.7,1,1.2,1.9,1.2c0.2,0,0.3,0,0.5-0.1c1,0.3,2,0.6,3,1
	c-0.2-0.9-1-1.6-1.9-1.6c0,0,0,0-0.1,0c0.3-0.4,0.5-0.8,0.5-1.3c0-1.1-0.9-2-2-2c0,0-0.1,0-0.1,0c-0.3-0.7-1-1.2-1.8-1.2
	c-0.4,0-0.8,0.1-1.1,0.3c-0.3-0.2-0.7-0.3-1.1-0.3c-0.9,0-1.6,0.5-1.9,1.3c-0.2-0.1-0.4-0.1-0.6-0.1c-1.1,0-2,0.9-2,2
	c0,0.2,0,0.4,0.1,0.6c-0.3-0.1-0.5-0.2-0.8-0.2c-1.1,0-2,0.9-2,2C222.7,59.1,223.6,60,224.7,60z"/>
<circle cx="196.3" cy="108.8" r="2"/>
<circle cx="206.2" cy="88.3" r="2"/>
<circle cx="190.8" cy="120.7" r="2"/>
<ellipse cx="210.6" cy="79.8" rx="2" ry="2"/>
<circle cx="164.3" cy="179" r="2"/>
<path d="M99.4,309.3c-1.1,0-2,0.9-2,2s0.9,2,2,2c1.1,0,2-0.9,2-2S100.5,309.3,99.4,309.3z"/>
<circle cx="63.5" cy="374.1" r="2"/>
<ellipse cx="76.1" cy="353.1" rx="2" ry="2"/>
<path d="M141.6,232c0-1.1-0.9-2-2-2c-1.1,0-2,0.9-2,2c0,1.1,0.9,2,2,2C140.7,234,141.6,233.1,141.6,232z"/>
<circle cx="110.3" cy="290.8" r="2"/>
<circle cx="156.6" cy="195.8" r="2"/>
<circle cx="178.4" cy="147.9" r="2"/>
<circle cx="171.6" cy="162.9" r="2"/>
<circle cx="130.3" cy="251.1" r="2"/>
<ellipse cx="120.6" cy="270.7" rx="2" ry="2"/>
<path d="M148.3,215.5c1.1,0,2-0.9,2-2c0-1.1-0.9-2-2-2c-1.1,0-2,0.9-2,2C146.3,214.6,147.2,215.5,148.3,215.5z"/>
<circle cx="184.8" cy="133.8" r="2"/>
<circle cx="144.3" cy="281.1" r="2"/>
<ellipse cx="134.8" cy="301.8" rx="2" ry="2"/>
<ellipse cx="153.2" cy="260.9" rx="2" ry="2"/>
<circle cx="169.7" cy="222.4" r="2"/>
<ellipse cx="124.9" cy="322.9" rx="2" ry="2"/>
<circle cx="103.5" cy="365.9" r="2"/>
<circle cx="114.4" cy="344.3" r="2"/>
<ellipse cx="161.7" cy="241.3" rx="2" ry="2"/>
<path d="M218.3,105.1c1.1,0,2-0.9,2-2c0-1.1-0.9-2-2-2c-1.1,0-2,0.9-2,2C216.3,104.2,217.2,105.1,218.3,105.1z"/>
<ellipse cx="208.5" cy="126.7" rx="2" ry="2"/>
<circle cx="213.6" cy="114.3" r="2"/>
<path d="M222.7,95c1.1,0,2-0.9,2-2c0-1.1-0.9-2-2-2c-1.1,0-2,0.9-2,2C220.7,94.1,221.6,95,222.7,95z"/>
<circle cx="177.2" cy="204.1" r="2"/>
<circle cx="184.3" cy="186.8" r="2"/>
<path d="M203.1,142.2c1.1,0,2-0.9,2-2c0-1.1-0.9-2-2-2c-1.1,0-2,0.9-2,2C201.1,141.3,202,142.2,203.1,142.2z"/>
<circle cx="191" cy="170.3" r="2"/>
<circle cx="197.2" cy="154.7" r="2"/>
<path d="M226.7,82.1c-1.1,0-2,0.9-2,2c0,1.1,0.9,2,2,2c1.1,0,2-0.9,2-2C228.7,83,227.8,82.1,226.7,82.1z"/>
<circle cx="144" cy="44" r="2"/>
<circle cx="34.2" cy="85.5" r="2"/>
<circle cx="23.6" cy="96.4" r="2"/>
<circle cx="44.2" cy="75.4" r="2"/>
<circle cx="53.6" cy="66.1" r="2"/>
<circle cx="62.2" cy="57.7" r="2"/>
<circle cx="12.2" cy="108" r="2"/>
<circle cx="102" cy="28.2" r="2"/>
<circle cx="106.8" cy="26.9" r="2"/>
<circle cx="84.6" cy="38.4" r="2"/>
<ellipse cx="96.7" cy="30.5" rx="2" ry="2"/>
<circle cx="70.3" cy="50.3" r="2"/>
<circle cx="77.8" cy="43.8" r="2"/>
<circle cx="91" cy="33.9" r="2"/>
<circle cx="98.8" cy="45.5" r="2"/>
<ellipse cx="120.5" cy="31.8" rx="2" ry="2"/>
<circle cx="105" cy="40.4" r="2"/>
<path d="M112.6,36.5c0-1.1-0.9-2-2-2c-1.1,0-2,0.9-2,2c0,1.1,0.9,2,2,2C111.7,38.5,112.6,37.6,112.6,36.5z"/>
<path d="M124.7,33.1c0.9,0,1.6-0.6,1.9-1.4c0.8,0.6,1.6,1.1,2.5,1.7c0.8-0.3,1.4-1,1.4-1.9c0-1.1-0.9-2-2-2c-0.8,0-1.5,0.5-1.8,1.1
	c-0.2-0.9-1-1.6-2-1.6c-1.1,0-2,0.9-2,2S123.6,33.1,124.7,33.1z"/>
<circle cx="115.8" cy="33.6" r="2"/>
<circle cx="76.9" cy="66.7" r="2"/>
<circle cx="68.4" cy="75.8" r="2"/>
<path d="M92,49.5c-1.1,0-2,0.9-2,2c0,1.1,0.9,2,2,2c1.1,0,2-0.9,2-2C94.1,50.4,93.2,49.5,92,49.5z"/>
<circle cx="59.3" cy="85.7" r="2"/>
<ellipse cx="84.8" cy="58.6" rx="2" ry="2"/>
<circle cx="28.1" cy="120.6" r="2"/>
<circle cx="49.6" cy="96.5" r="2"/>
<ellipse cx="16.3" cy="133.6" rx="2" ry="2"/>
<path d="M5.8,147.3c0-1.1-0.9-2-2-2c-1.1,0-2,0.9-2,2c0,1.1,0.9,2,2,2C4.9,149.4,5.8,148.5,5.8,147.3z"/>
<circle cx="39.1" cy="108.2" r="2"/>
<path d="M111.1,28.7c1.1,0,2-0.9,2-2c0-1.1-0.9-2-2-2c-1.1,0-2,0.9-2,2C109,27.8,110,28.7,111.1,28.7z"/>
<ellipse cx="69.7" cy="18.4" rx="2" ry="2"/>
<circle cx="57.3" cy="23.8" r="2"/>
<circle cx="50.2" cy="28" r="2"/>
<circle cx="75.1" cy="17.2" r="2"/>
<circle cx="63.8" cy="20.6" r="2"/>
<ellipse cx="8.6" cy="84.3" rx="2" ry="2"/>
<ellipse cx="63.8" cy="36" rx="2" ry="2"/>
<ellipse cx="70.8" cy="31.2" rx="2" ry="2"/>
<circle cx="56.2" cy="41.8" r="2"/>
<circle cx="83.1" cy="24.5" r="2"/>
<circle cx="48" cy="48.6" r="2"/>
<path d="M31.7,64.8c0-1.1-0.9-2-2-2c-1.1,0-2,0.9-2,2c0,1.1,0.9,2,2,2C30.8,66.8,31.7,65.9,31.7,64.8z"/>
<path d="M21.5,74.2c0-1.1-0.9-2-2-2c-1.1,0-2,0.9-2,2s0.9,2,2,2C20.6,76.2,21.5,75.3,21.5,74.2z"/>
<path d="M39.2,54.2c-1.1,0-2,0.9-2,2c0,1.1,0.9,2,2,2c1.1,0,2-0.9,2-2C41.2,55.1,40.3,54.2,39.2,54.2z"/>
<circle cx="77.2" cy="27.3" r="2"/>
<circle cx="88.4" cy="22.7" r="2"/>
<circle cx="93.3" cy="22" r="2"/>
<ellipse cx="57.7" cy="187.2" rx="2" ry="2"/>
<circle cx="6.2" cy="255.9" r="2"/>
<path d="M20.1,236.1c-1.1,0-2,0.9-2,2s0.9,2,2,2c1.1,0,2-0.9,2-2S21.2,236.1,20.1,236.1z"/>
<circle cx="33.3" cy="220.7" r="2"/>
<ellipse cx="45.9" cy="203.7" rx="2" ry="2"/>
<path d="M152.4,41.6c0.9,0,1.7-0.6,1.9-1.4c0.4,0.5,1,0.9,1.7,0.9c0.5,0,1-0.2,1.4-0.6c0.3,0.7,1,1.2,1.8,1.2c1.1,0,2-0.9,2-2
	c0-1.1-0.9-2-2-2c-0.5,0-1,0.2-1.4,0.6c-0.3-0.7-1-1.2-1.8-1.2c-0.9,0-1.7,0.6-1.9,1.4c-0.4-0.5-1-0.9-1.7-0.9c-1.1,0-2,0.9-2,2
	C150.4,40.7,151.3,41.6,152.4,41.6z"/>
<path d="M148.4,43.2c1.1,0,2-0.9,2-2c0-1.1-0.9-2-2-2c-1.1,0-2,0.9-2,2C146.4,42.3,147.3,43.2,148.4,43.2z"/>
<circle cx="42.5" cy="33.2" r="2"/>
<circle cx="139.1" cy="47.9" r="2"/>
<circle cx="162.7" cy="45.7" r="2"/>
<circle cx="130.4" cy="82.2" r="2"/>
<circle cx="143" cy="65.5" r="2"/>
<circle cx="115.7" cy="103" r="2"/>
<ellipse cx="137" cy="73.3" rx="2" ry="2"/>
<path d="M123.3,94.1c1.1,0,2-0.9,2-2c0-1.1-0.9-2-2-2c-1.1,0-2,0.9-2,2C121.3,93.2,122.2,94.1,123.3,94.1z"/>
<ellipse cx="79.5" cy="156" rx="2" ry="2"/>
<circle cx="89.4" cy="141.5" r="2"/>
<ellipse cx="98.7" cy="127.8" rx="2" ry="2"/>
<circle cx="107.5" cy="114.9" r="2"/>
<circle cx="153.8" cy="53.3" r="2"/>
<circle cx="148.6" cy="58.9" r="2"/>
<path d="M166.5,45.6c1,0,1.8-0.7,2-1.6c0.4,0.4,0.9,0.7,1.5,0.7c0.6,0,1.1-0.2,1.5-0.6c0.4,0.5,1,0.8,1.6,0.8c0.4,0,0.8-0.1,1.1-0.4
	c0.9,0.5,1.8,1,2.7,1.4c0.5-0.4,0.9-0.9,0.9-1.6c0-1.1-0.9-2-2-2c-0.3,0-0.5,0.1-0.7,0.1c-0.2-0.9-1-1.7-2-1.7
	c-0.6,0-1.1,0.3-1.5,0.6c-0.4-0.5-1-0.8-1.6-0.8c-1,0-1.8,0.7-2,1.6c-0.4-0.4-0.9-0.7-1.5-0.7c-1.1,0-2,0.9-2,2
	C164.5,44.7,165.4,45.6,166.5,45.6z"/>
<circle cx="158.4" cy="48.9" r="2"/>
<ellipse cx="68.9" cy="171.2" rx="2" ry="2"/>
<circle cx="91.9" cy="75.5" r="2"/>
<circle cx="106.7" cy="59" r="2"/>
<circle cx="99.6" cy="66.7" r="2"/>
<circle cx="119.2" cy="46.8" r="2"/>
<circle cx="113.2" cy="52.4" r="2"/>
<circle cx="83.7" cy="85.2" r="2"/>
<circle cx="55.3" cy="119.7" r="2"/>
<circle cx="65.4" cy="107.3" r="2"/>
<circle cx="124.7" cy="42.3" r="2"/>
<path d="M74.9,97.8c1.1,0,2-0.9,2-2c0-1.1-0.9-2-2-2c-1.1,0-2,0.9-2,2C72.9,96.9,73.8,97.8,74.9,97.8z"/>
<circle cx="133.8" cy="52.9" r="2"/>
<circle cx="44.6" cy="132.8" r="2"/>
<path d="M134.3,38.6c1.1,0,2-0.9,2-2c0-1.1-0.9-2-2-2c-1.1,0-2,0.9-2,2C132.3,37.7,133.2,38.6,134.3,38.6z"/>
<circle cx="129.8" cy="38.9" r="2"/>
<path d="M138.5,37.4c0.8,0,1.6-0.5,1.9-1.3c0.3,0.7,1,1.2,1.8,1.2c1.1,0,2-0.9,2-2c0-1.1-0.9-2-2-2c-0.8,0-1.6,0.5-1.9,1.3
	c-0.3-0.7-1-1.2-1.8-1.2c-1.1,0-2,0.9-2,2C136.4,36.5,137.3,37.4,138.5,37.4z"/>
<ellipse cx="33.1" cy="146.6" rx="2" ry="2"/>
<ellipse cx="8.2" cy="176.1" rx="2" ry="2"/>
<circle cx="21" cy="161.1" r="2"/>
<circle cx="13.6" cy="206.4" r="2"/>
<ellipse cx="39" cy="174.4" rx="2" ry="2"/>
<circle cx="26.6" cy="190.2" r="2"/>
<circle cx="50.7" cy="159.2" r="2"/>
<circle cx="128" cy="59.1" r="2"/>
<ellipse cx="61.7" cy="144.6" rx="2" ry="2"/>
<ellipse cx="114.8" cy="74.6" rx="2" ry="2"/>
<circle cx="107.4" cy="83.9" r="2"/>
<circle cx="81.8" cy="117.7" r="2"/>
<circle cx="99.5" cy="94.3" r="2"/>
<circle cx="72.1" cy="130.8" r="2"/>
<circle cx="90.9" cy="105.5" r="2"/>
<circle cx="121.6" cy="66.3" r="2"/>
</svg>
